M48
; DRILL file {KiCad (5.1.9-0-10_14)} date Wednesday, March 17, 2021 at 09:03:35 PM
; FORMAT={-:-/ absolute / inch / decimal}
; #@! TF.CreationDate,2021-03-17T21:03:35+01:00
; #@! TF.GenerationSoftware,Kicad,Pcbnew,(5.1.9-0-10_14)
FMAT,2
INCH
T1C0.0118
T2C0.0315
T3C0.0394
T4C0.0472
T5C0.0591
T6C0.0669
T7C0.0454
T8C0.0827
T9C0.1260
%
G90
G05
T1
X3.7598Y-7.2441
X3.7598Y-7.2835
X3.7598Y-7.3228
X4.065Y-8.4449
X4.2126Y-7.3228
X4.2323Y-8.248
X4.2717Y-7.7559
X4.2717Y-7.8543
X4.2717Y-7.9528
X4.2717Y-8.0512
X4.3012Y-8.248
X4.3504Y-7.9134
X4.3504Y-7.9429
X4.3504Y-7.9724
X4.3504Y-8.002
X4.3602Y-7.2441
X4.3602Y-7.313
X4.3602Y-8.4154
X4.3602Y-8.4843
X4.3701Y-8.1299
X4.4094Y-8.1299
X4.4291Y-7.3228
X4.4488Y-8.1299
X4.4587Y-8.1693
X4.4587Y-8.4252
X4.4906Y-7.3894
X4.493Y-7.3394
X4.493Y-7.4394
X4.493Y-7.4894
X4.498Y-8.4045
X4.5659Y-8.2972
X4.6297Y-8.2874
X4.6297Y-8.3465
X4.6457Y-7.7067
X4.6797Y-8.2579
X4.6797Y-8.3169
X4.818Y-7.4644
X4.868Y-7.3644
X4.943Y-7.3394
X4.943Y-7.3394
X4.943Y-7.4019
X4.943Y-7.4019
X4.9606Y-8.2371
X4.993Y-7.3394
X4.993Y-7.3394
X4.993Y-7.4394
X4.993Y-7.4894
X5.0197Y-8.1988
X5.0197Y-8.2283
X5.0197Y-8.376
X5.0197Y-8.4055
X5.0492Y-8.1988
X5.0492Y-8.2283
X5.0492Y-8.376
X5.0492Y-8.4055
X5.093Y-7.7519
X5.1673Y-8.1693
X5.1673Y-8.4252
X5.2067Y-8.4045
X5.2884Y-8.2874
X5.318Y-7.4644
X5.3384Y-8.2874
X5.3384Y-8.3465
X5.368Y-7.3644
X5.3884Y-8.2579
X5.3884Y-8.3169
X5.443Y-7.3394
X5.443Y-7.4019
X5.493Y-7.3394
X5.493Y-7.3394
X5.493Y-7.4394
X5.493Y-7.4894
X5.593Y-7.7519
X5.6693Y-8.2283
X5.818Y-7.4644
X5.868Y-7.3644
X5.876Y-8.1693
X5.876Y-8.4252
X5.9154Y-8.4045
X5.943Y-7.3394
X5.943Y-7.4019
X5.993Y-7.3394
X5.993Y-7.3394
X5.993Y-7.4394
X5.993Y-7.4894
X5.997Y-8.2874
X6.047Y-8.2874
X6.047Y-8.3465
X6.093Y-7.7519
X6.097Y-8.2579
X6.097Y-8.3169
X6.318Y-7.4644
X6.368Y-7.3644
X6.378Y-8.2283
X6.443Y-7.3394
X6.443Y-7.4019
X6.493Y-7.3394
X6.493Y-7.4394
X6.493Y-7.4894
X6.5846Y-8.1693
X6.5846Y-8.4252
X6.593Y-7.7519
X6.624Y-8.4045
X6.7057Y-8.2874
X6.7557Y-8.2874
X6.7557Y-8.3465
X6.8057Y-8.2579
X6.8057Y-8.3169
X6.818Y-7.4644
X6.868Y-7.3644
X6.943Y-7.3394
X6.943Y-7.4019
X6.993Y-7.3394
X6.993Y-7.3394
X6.993Y-7.4394
X6.993Y-7.4894
X7.0866Y-8.2283
X7.093Y-7.7519
X7.1654Y-8.1704
X7.2047Y-8.4055
X7.2539Y-8.563
X7.2819Y-8.3465
X7.2835Y-8.563
X7.313Y-8.563
X7.318Y-7.4644
X7.3319Y-8.2579
X7.3327Y-8.4646
X7.368Y-7.3644
X7.372Y-7.4016
X7.372Y-7.9724
X7.3819Y-8.3169
X7.3819Y-8.4547
X7.4114Y-7.8839
X7.4114Y-7.9429
X7.4311Y-8.002
X7.4311Y-8.4646
X7.4319Y-8.1594
X7.4332Y-7.622
X7.4332Y-7.7165
X7.4606Y-8.4646
X7.4705Y-7.2441
X7.4705Y-7.313
X7.4803Y-7.3819
X7.4819Y-8.2874
X7.5026Y-8.4619
X7.5319Y-8.4622
X7.558Y-8.3366
X7.5787Y-7.8926
X7.5787Y-8.1201
X7.6069Y-7.4294
X7.6083Y-7.2244
X7.6083Y-7.313
X7.6083Y-8.1201
X7.6476Y-7.8926
X7.6575Y-7.7461
X7.6673Y-8.2283
X7.6673Y-8.3465
X7.7854Y-8.4558
X7.7953Y-8.002
X7.8051Y-7.9528
X7.874Y-7.9528
X7.9134Y-7.4961
X7.9134Y-7.5276
X7.9134Y-7.5591
X7.9429Y-7.9528
X7.9429Y-8.002
X7.9528Y-7.378
X7.9843Y-7.4173
X8.0079Y-7.4961
X8.0079Y-7.5276
X8.0079Y-7.5591
X8.0217Y-8.0709
X8.0276Y-8.563
X8.0591Y-8.563
X8.0807Y-7.8543
X8.0807Y-8.1594
X8.0903Y-8.5628
X8.0906Y-7.757
X8.1004Y-7.7953
X8.1299Y-7.2874
X8.1299Y-7.5886
X8.1299Y-7.7756
X8.1299Y-7.874
X8.1502Y-8.0703
X8.1791Y-8.1004
X8.248Y-7.8139
X8.248Y-8.0326
X8.252Y-8.5197
X8.2598Y-7.4173
X8.2776Y-7.6375
X8.318Y-7.5492
X8.3268Y-7.6772
X8.3268Y-7.8554
X8.3268Y-7.9724
X8.3268Y-8.061
X8.3366Y-7.2244
X8.3465Y-7.4016
X8.4449Y-8.0448
X8.4843Y-8.0326
X8.5276Y-8.1757
X8.5335Y-8.5236
X8.5354Y-7.685
X8.5766Y-8.1575
X8.5827Y-7.8642
X8.6024Y-7.7264
X8.6024Y-7.9626
X8.6222Y-8.1813
X8.6516Y-7.7461
X8.6516Y-7.7461
X8.6516Y-7.9626
X8.6614Y-7.6575
X8.6713Y-8.248
X8.6835Y-8.1965
X8.7008Y-7.7067
X8.7205Y-8.2283
X8.7266Y-7.5492
X8.7266Y-7.9686
X8.7266Y-8.1594
X8.7303Y-7.7165
X8.7402Y-7.8533
X8.75Y-8.2382
X8.7598Y-7.2638
X8.7598Y-7.2933
X8.7598Y-7.3228
X8.7598Y-7.3524
X8.7598Y-7.3819
X8.7598Y-7.4114
X8.7598Y-7.4409
X8.7766Y-7.6567
X8.7766Y-8.1594
X8.7992Y-8.2283
X8.8266Y-8.1573
X8.8277Y-8.2382
X8.8386Y-8.002
X8.8858Y-8.4843
X8.8858Y-8.5236
X8.9272Y-7.7362
X8.9272Y-8.0403
X8.9283Y-7.9478
X8.9803Y-7.9724
X9.0846Y-7.815
X9.1437Y-7.815
X9.1535Y-7.4409
X9.1929Y-7.4409
X9.1929Y-7.5984
X9.2254Y-7.874
X9.2618Y-7.874
X9.2852Y-7.8986
X9.3254Y-7.8494
X9.3254Y-7.9232
X9.8268Y-7.7402
X9.8268Y-7.7953
X9.8524Y-7.6772
X9.8524Y-7.6772
X9.872Y-8.4843
X9.872Y-8.5236
X9.9114Y-7.7362
X9.9126Y-7.9478
X9.9646Y-7.9724
X10.0689Y-7.815
X10.128Y-7.815
X10.1378Y-7.4409
X10.1772Y-7.5197
X10.1772Y-7.5984
X10.2096Y-7.874
X10.2461Y-7.874
X10.2695Y-7.8986
X10.3096Y-7.8494
X10.3096Y-7.9232
X10.8415Y-7.6526
X10.8563Y-8.4843
X10.8563Y-8.5236
X10.8957Y-7.7362
X10.8969Y-7.9478
X10.9488Y-7.9724
X11.0531Y-7.815
X11.1122Y-7.815
X11.122Y-7.4409
X11.1614Y-7.5591
X11.1614Y-7.6181
X11.1939Y-7.874
X11.2303Y-7.874
X11.2537Y-7.8986
X11.2939Y-7.8494
X11.2939Y-7.9232
X11.7874Y-7.748
X11.7874Y-7.7953
X11.8258Y-7.6427
X11.8406Y-8.4843
X11.8406Y-8.5236
X11.8799Y-7.7362
X11.8811Y-7.9478
X11.9331Y-7.9724
X12.0374Y-7.815
X12.0965Y-7.815
X12.1063Y-7.4409
X12.1457Y-7.5787
X12.1457Y-7.6575
X12.1781Y-7.874
X12.2146Y-7.874
X12.238Y-7.8986
X12.2781Y-7.8494
X12.2781Y-7.9232
X12.81Y-7.4163
X12.8248Y-8.4843
X12.8248Y-8.5236
X12.8642Y-7.7362
X12.8654Y-7.9478
X12.9173Y-7.9724
X13.0217Y-7.815
X13.0807Y-7.815
X13.0906Y-7.4213
X13.1299Y-7.4213
X13.1299Y-7.5
X13.1624Y-7.874
X13.1988Y-7.874
X13.2222Y-7.8986
X13.2624Y-7.8494
X13.2624Y-7.9232
X13.7943Y-7.4065
X13.8091Y-8.4843
X13.8091Y-8.5236
X13.8484Y-7.7362
X13.8496Y-7.9478
X13.9016Y-7.9724
X14.0059Y-7.815
X14.065Y-7.815
X14.0748Y-7.4016
X14.1142Y-7.4016
X14.1142Y-7.4803
X14.1467Y-7.874
X14.1831Y-7.874
X14.2065Y-7.8986
X14.2467Y-7.8494
X14.2467Y-7.9232
X14.6949Y-8.061
X14.7047Y-7.7067
X14.7146Y-8.0906
X14.7343Y-7.7362
X14.7441Y-8.1201
X14.7539Y-7.7657
X14.7758Y-7.8051
X14.7758Y-8.2874
X14.8008Y-8.2087
X14.8258Y-8.0285
X14.8258Y-8.3169
X14.8472Y-7.874
X14.8508Y-8.2283
X14.8524Y-7.5295
X14.8622Y-8.2776
X14.8965Y-7.874
X14.9258Y-7.9035
X14.9258Y-8.2579
X14.9311Y-7.7963
X14.9508Y-7.5984
X14.9508Y-8.2283
X14.9758Y-7.7067
X14.9758Y-8.0262
X14.9803Y-8.2087
X15.0008Y-8.0815
X15.0197Y-7.5689
X15.0258Y-7.7264
X15.0258Y-8.0254
X15.0258Y-8.1102
X15.0591Y-8.0807
X15.0758Y-7.7559
X15.1008Y-8.0512
X15.1555Y-8.0197
X15.1713Y-7.9941
X15.1722Y-7.5148
X15.187Y-8.5039
X15.187Y-8.5433
X15.2264Y-7.7362
X15.2276Y-7.9478
X15.2795Y-7.9724
X15.3839Y-7.815
X15.4429Y-7.815
X15.4528Y-7.4409
X15.4921Y-7.5787
X15.4921Y-7.6575
X15.5246Y-7.874
X15.561Y-7.874
X15.5844Y-7.8986
X15.6246Y-7.8494
X15.6246Y-7.9232
X16.1565Y-7.4065
X16.1713Y-8.4843
X16.1713Y-8.5236
X16.2106Y-7.7362
X16.2118Y-7.9478
X16.2638Y-7.9724
X16.3681Y-7.815
X16.4272Y-7.815
X16.437Y-7.4213
X16.4764Y-7.4213
X16.4764Y-7.4803
X16.5089Y-7.874
X16.5453Y-7.874
X16.5687Y-7.8986
X16.6089Y-7.8494
X16.6089Y-7.9232
X17.1407Y-7.3868
X17.1555Y-8.4843
X17.1555Y-8.5236
X17.1949Y-7.7362
X17.1961Y-7.9478
X17.248Y-7.9724
X17.3524Y-7.815
X17.4114Y-7.815
X17.4213Y-7.4016
X17.4606Y-7.4016
X17.4606Y-7.4606
X17.4931Y-7.874
X17.5295Y-7.874
X17.553Y-7.8986
X17.5931Y-7.8494
X17.5931Y-7.9232
X18.125Y-7.3671
X18.1398Y-8.4843
X18.1398Y-8.5236
X18.1791Y-7.7362
X18.1803Y-7.9478
X18.2323Y-7.9724
X18.3366Y-7.815
X18.3957Y-7.815
X18.4055Y-7.3819
X18.4449Y-7.3819
X18.4449Y-7.5689
X18.4774Y-7.874
X18.5138Y-7.874
X18.5372Y-7.8986
X18.5774Y-7.8494
X18.5774Y-7.9232
X19.1093Y-7.3474
X19.124Y-8.4843
X19.124Y-8.5236
X19.1634Y-7.7362
X19.1646Y-7.9478
X19.2165Y-7.9724
X19.3209Y-7.815
X19.3799Y-7.815
X19.4291Y-7.3228
X19.4616Y-7.874
X19.5215Y-7.8986
X19.5616Y-7.8494
X19.5616Y-7.9232
X20.1575Y-7.9921
X20.1575Y-8.0315
X20.1575Y-8.0709
T2
X4.4555Y-7.2394
X4.4555Y-7.8394
X4.5555Y-7.2394
X4.5555Y-7.8394
X4.6555Y-7.2394
X4.6555Y-7.8394
X4.7555Y-7.2394
X4.7555Y-7.8394
X4.8555Y-7.2394
X4.8555Y-7.8394
X4.9555Y-7.2394
X4.9555Y-7.8394
X5.0555Y-7.2394
X5.0555Y-7.8394
X5.1555Y-7.2394
X5.1555Y-7.8394
X5.2555Y-7.2394
X5.2555Y-7.8394
X5.3555Y-7.2394
X5.3555Y-7.8394
X5.4555Y-7.2394
X5.4555Y-7.8394
X5.5555Y-7.2394
X5.5555Y-7.8394
X5.6555Y-7.2394
X5.6555Y-7.8394
X5.7555Y-7.2394
X5.7555Y-7.8394
X5.8555Y-7.2394
X5.8555Y-7.8394
X5.9555Y-7.2394
X5.9555Y-7.8394
X6.0555Y-7.2394
X6.0555Y-7.8394
X6.1555Y-7.2394
X6.1555Y-7.8394
X6.2555Y-7.2394
X6.2555Y-7.8394
X6.3555Y-7.2394
X6.3555Y-7.8394
X6.4555Y-7.2394
X6.4555Y-7.8394
X6.5555Y-7.2394
X6.5555Y-7.8394
X6.6555Y-7.2394
X6.6555Y-7.8394
X6.7555Y-7.2394
X6.7555Y-7.8394
X6.8555Y-7.2394
X6.8555Y-7.8394
X6.9555Y-7.2394
X6.9555Y-7.8394
X7.0555Y-7.2394
X7.0555Y-7.8394
X7.1555Y-7.2394
X7.1555Y-7.8394
X7.2555Y-7.2394
X7.2555Y-7.8394
X7.3555Y-7.2394
X7.3555Y-7.8394
T3
X7.7756Y-7.2244
X7.7756Y-7.7953
X7.874Y-7.7953
X7.9724Y-7.2244
X7.9724Y-7.7953
X9.1535Y-7.2244
X9.252Y-7.2244
X9.3504Y-7.2244
X10.1378Y-7.2244
X10.2362Y-7.2244
X10.3346Y-7.2244
X11.122Y-7.2244
X11.2205Y-7.2244
X11.3189Y-7.2244
X12.1063Y-7.2244
X12.2047Y-7.2244
X12.3031Y-7.2244
X13.0906Y-7.2244
X13.189Y-7.2244
X13.2874Y-7.2244
X14.0748Y-7.2244
X14.1732Y-7.2244
X14.2717Y-7.2244
X15.4528Y-7.2244
X15.5512Y-7.2244
X15.6496Y-7.2244
X16.437Y-7.2244
X16.5354Y-7.2244
X16.6339Y-7.2244
X17.4213Y-7.2244
X17.5197Y-7.2244
X17.6181Y-7.2244
X18.4055Y-7.2244
X18.5039Y-7.2244
X18.6024Y-7.2244
X19.3898Y-7.2244
X19.4882Y-7.2244
X19.5866Y-7.2244
T4
X3.8386Y-7.4016
X3.8386Y-7.5984
X3.8386Y-8.1693
X3.8386Y-8.3661
X3.937Y-7.378
X3.937Y-7.622
X3.937Y-8.1457
X3.937Y-8.3898
X4.0354Y-7.4016
X4.0354Y-7.5984
X4.0354Y-8.1693
X4.0354Y-8.3661
X7.7756Y-8.1693
X7.7756Y-8.3661
X7.874Y-8.1457
X7.874Y-8.3898
X7.9724Y-8.1693
X7.9724Y-8.3661
X9.1535Y-8.1693
X9.1535Y-8.3661
X9.252Y-8.1457
X9.252Y-8.3898
X9.3504Y-8.1693
X9.3504Y-8.3661
X10.1378Y-8.1693
X10.1378Y-8.3661
X10.2362Y-8.1457
X10.2362Y-8.3898
X10.3346Y-8.1693
X10.3346Y-8.3661
X11.122Y-8.1693
X11.122Y-8.3661
X11.2205Y-8.1457
X11.2205Y-8.3898
X11.3189Y-8.1693
X11.3189Y-8.3661
X12.1063Y-8.1693
X12.1063Y-8.3661
X12.2047Y-8.1457
X12.2047Y-8.3898
X12.3031Y-8.1693
X12.3031Y-8.3661
X13.0906Y-8.1693
X13.0906Y-8.3661
X13.189Y-8.1457
X13.189Y-8.3898
X13.2874Y-8.1693
X13.2874Y-8.3661
X14.0748Y-8.1693
X14.0748Y-8.3661
X14.1732Y-8.1457
X14.1732Y-8.3898
X14.2717Y-8.1693
X14.2717Y-8.3661
X15.4528Y-8.1693
X15.4528Y-8.3661
X15.5512Y-8.1457
X15.5512Y-8.3898
X15.6496Y-8.1693
X15.6496Y-8.3661
X16.437Y-8.1693
X16.437Y-8.3661
X16.5354Y-8.1457
X16.5354Y-8.3898
X16.6339Y-8.1693
X16.6339Y-8.3661
X17.4213Y-8.1693
X17.4213Y-8.3661
X17.5197Y-8.1457
X17.5197Y-8.3898
X17.6181Y-8.1693
X17.6181Y-8.3661
X18.4055Y-8.1693
X18.4055Y-8.3661
X18.5039Y-8.1457
X18.5039Y-8.3898
X18.6024Y-8.1693
X18.6024Y-8.3661
X19.3898Y-8.1693
X19.3898Y-8.3661
X19.4882Y-8.1457
X19.4882Y-8.3898
X19.5866Y-8.1693
X19.5866Y-8.3661
T6
X3.5874Y-7.874
X3.7433Y-7.874
X3.8992Y-7.874
X4.0551Y-7.874
T7
X3.4646Y-7.874
X20.0394Y-7.3228
X20.0394Y-8.4252
T8
X9.0433Y-7.5
X9.4606Y-7.5
X10.0276Y-7.5
X10.4449Y-7.5
X11.0118Y-7.5
X11.4291Y-7.5
X11.9961Y-7.5
X12.4134Y-7.5
X12.9803Y-7.5
X13.3976Y-7.5
X13.9646Y-7.5
X14.3819Y-7.5
X15.3425Y-7.5
X15.7598Y-7.5
X16.3268Y-7.5
X16.7441Y-7.5
X17.311Y-7.5
X17.7283Y-7.5
X18.2953Y-7.5
X18.7126Y-7.5
X19.2795Y-7.5
X19.6969Y-7.5
T9
X3.5236Y-7.4606
X3.5236Y-8.2874
X8.6614Y-7.3465
X8.6614Y-8.4016
X14.9606Y-7.3465
X14.9606Y-8.4016
X20.0984Y-7.4606
X20.0984Y-8.2874
T5
G00X7.6437Y-7.4744
M15
G01X7.6437Y-7.5256
M16
G05
G00X8.1043Y-7.4744
M15
G01X8.1043Y-7.5256
M16
G05
T0
M30
