%TF.GenerationSoftware,KiCad,Pcbnew,(5.1.9-0-10_14)*%
%TF.CreationDate,2021-03-17T21:03:33+01:00*%
%TF.ProjectId,Frontpanel,46726f6e-7470-4616-9e65-6c2e6b696361,rev?*%
%TF.SameCoordinates,Original*%
%TF.FileFunction,Legend,Top*%
%TF.FilePolarity,Positive*%
%FSLAX46Y46*%
G04 Gerber Fmt 4.6, Leading zero omitted, Abs format (unit mm)*
G04 Created by KiCad (PCBNEW (5.1.9-0-10_14)) date 2021-03-17 21:03:33*
%MOMM*%
%LPD*%
G01*
G04 APERTURE LIST*
%ADD10C,0.120000*%
G04 APERTURE END LIST*
D10*
%TO.C,SW1304*%
X200750000Y-197250000D02*
X201750000Y-197250000D01*
X198250000Y-197250000D02*
X199250000Y-197250000D01*
X206260000Y-192500000D02*
X206260000Y-197260000D01*
X193740000Y-192500000D02*
X193740000Y-197260000D01*
X203250000Y-197260000D02*
X206260000Y-197260000D01*
X198500000Y-183740000D02*
X201500000Y-183740000D01*
X196500000Y-183740000D02*
X193740000Y-183740000D01*
X203000000Y-190500000D02*
G75*
G03*
X203000000Y-190500000I-3000000J0D01*
G01*
X203500000Y-183740000D02*
X206260000Y-183740000D01*
X206260000Y-183740000D02*
X206260000Y-188500000D01*
X193740000Y-197260000D02*
X196750000Y-197260000D01*
X193740000Y-183740000D02*
X193740000Y-188500000D01*
%TO.C,R6*%
X191262742Y-189772500D02*
X191737258Y-189772500D01*
X191262742Y-188727500D02*
X191737258Y-188727500D01*
%TO.C,R1317*%
X199477500Y-200262742D02*
X199477500Y-200737258D01*
X200522500Y-200262742D02*
X200522500Y-200737258D01*
%TO.C,R1316*%
X204022500Y-200737258D02*
X204022500Y-200262742D01*
X202977500Y-200737258D02*
X202977500Y-200262742D01*
%TO.C,R1315*%
X197022500Y-200737258D02*
X197022500Y-200262742D01*
X195977500Y-200737258D02*
X195977500Y-200262742D01*
%TO.C,C1306*%
X201240000Y-200359420D02*
X201240000Y-200640580D01*
X202260000Y-200359420D02*
X202260000Y-200640580D01*
%TO.C,C1305*%
X197740000Y-200359420D02*
X197740000Y-200640580D01*
X198760000Y-200359420D02*
X198760000Y-200640580D01*
%TO.C,R4*%
X186227500Y-205262742D02*
X186227500Y-205737258D01*
X187272500Y-205262742D02*
X187272500Y-205737258D01*
%TO.C,R3*%
X187977500Y-205262742D02*
X187977500Y-205737258D01*
X189022500Y-205262742D02*
X189022500Y-205737258D01*
%TO.C,R7*%
X226522500Y-206237258D02*
X226522500Y-205762742D01*
X225477500Y-206237258D02*
X225477500Y-205762742D01*
%TO.C,R5*%
X189727500Y-205262742D02*
X189727500Y-205737258D01*
X190772500Y-205262742D02*
X190772500Y-205737258D01*
%TO.C,U2*%
X210250000Y-195565000D02*
X206800000Y-195565000D01*
X210250000Y-195565000D02*
X212200000Y-195565000D01*
X210250000Y-204435000D02*
X208300000Y-204435000D01*
X210250000Y-204435000D02*
X212200000Y-204435000D01*
%TO.C,U1*%
X183065000Y-211000000D02*
X183065000Y-214450000D01*
X183065000Y-211000000D02*
X183065000Y-209050000D01*
X191935000Y-211000000D02*
X191935000Y-212950000D01*
X191935000Y-211000000D02*
X191935000Y-209050000D01*
%TO.C,U1404*%
X178560000Y-211000000D02*
X178560000Y-209050000D01*
X178560000Y-211000000D02*
X178560000Y-212950000D01*
X168440000Y-211000000D02*
X168440000Y-209050000D01*
X168440000Y-211000000D02*
X168440000Y-214450000D01*
%TO.C,U1403*%
X160560000Y-211000000D02*
X160560000Y-209050000D01*
X160560000Y-211000000D02*
X160560000Y-212950000D01*
X150440000Y-211000000D02*
X150440000Y-209050000D01*
X150440000Y-211000000D02*
X150440000Y-214450000D01*
%TO.C,U1402*%
X142560000Y-211000000D02*
X142560000Y-209050000D01*
X142560000Y-211000000D02*
X142560000Y-212950000D01*
X132440000Y-211000000D02*
X132440000Y-209050000D01*
X132440000Y-211000000D02*
X132440000Y-214450000D01*
%TO.C,U1401*%
X124560000Y-211000000D02*
X124560000Y-209050000D01*
X124560000Y-211000000D02*
X124560000Y-212950000D01*
X114440000Y-211000000D02*
X114440000Y-209050000D01*
X114440000Y-211000000D02*
X114440000Y-214450000D01*
%TO.C,R1404*%
X167772500Y-212262742D02*
X167772500Y-212737258D01*
X166727500Y-212262742D02*
X166727500Y-212737258D01*
%TO.C,R1403*%
X149772500Y-212337742D02*
X149772500Y-212812258D01*
X148727500Y-212337742D02*
X148727500Y-212812258D01*
%TO.C,R1402*%
X131772500Y-212262742D02*
X131772500Y-212737258D01*
X130727500Y-212262742D02*
X130727500Y-212737258D01*
%TO.C,R1401*%
X113772500Y-212262742D02*
X113772500Y-212737258D01*
X112727500Y-212262742D02*
X112727500Y-212737258D01*
%TO.C,D1432*%
X171312500Y-205040000D02*
X168627500Y-205040000D01*
X168627500Y-205040000D02*
X168627500Y-206960000D01*
X168627500Y-206960000D02*
X171312500Y-206960000D01*
%TO.C,D1431*%
X175750000Y-205040000D02*
X173065000Y-205040000D01*
X173065000Y-205040000D02*
X173065000Y-206960000D01*
X173065000Y-206960000D02*
X175750000Y-206960000D01*
%TO.C,D1430*%
X180250000Y-205040000D02*
X177565000Y-205040000D01*
X177565000Y-205040000D02*
X177565000Y-206960000D01*
X177565000Y-206960000D02*
X180250000Y-206960000D01*
%TO.C,D1429*%
X184750000Y-205040000D02*
X182065000Y-205040000D01*
X182065000Y-205040000D02*
X182065000Y-206960000D01*
X182065000Y-206960000D02*
X184750000Y-206960000D01*
%TO.C,D1428*%
X184750000Y-215040000D02*
X182065000Y-215040000D01*
X182065000Y-215040000D02*
X182065000Y-216960000D01*
X182065000Y-216960000D02*
X184750000Y-216960000D01*
%TO.C,D1427*%
X180250000Y-215040000D02*
X177565000Y-215040000D01*
X177565000Y-215040000D02*
X177565000Y-216960000D01*
X177565000Y-216960000D02*
X180250000Y-216960000D01*
%TO.C,D1426*%
X175750000Y-215040000D02*
X173065000Y-215040000D01*
X173065000Y-215040000D02*
X173065000Y-216960000D01*
X173065000Y-216960000D02*
X175750000Y-216960000D01*
%TO.C,D1425*%
X171250000Y-215040000D02*
X168565000Y-215040000D01*
X168565000Y-215040000D02*
X168565000Y-216960000D01*
X168565000Y-216960000D02*
X171250000Y-216960000D01*
%TO.C,D1424*%
X153250000Y-205040000D02*
X150565000Y-205040000D01*
X150565000Y-205040000D02*
X150565000Y-206960000D01*
X150565000Y-206960000D02*
X153250000Y-206960000D01*
%TO.C,D1423*%
X157750000Y-205040000D02*
X155065000Y-205040000D01*
X155065000Y-205040000D02*
X155065000Y-206960000D01*
X155065000Y-206960000D02*
X157750000Y-206960000D01*
%TO.C,D1422*%
X162250000Y-205040000D02*
X159565000Y-205040000D01*
X159565000Y-205040000D02*
X159565000Y-206960000D01*
X159565000Y-206960000D02*
X162250000Y-206960000D01*
%TO.C,D1421*%
X166750000Y-205040000D02*
X164065000Y-205040000D01*
X164065000Y-205040000D02*
X164065000Y-206960000D01*
X164065000Y-206960000D02*
X166750000Y-206960000D01*
%TO.C,D1420*%
X166750000Y-215040000D02*
X164065000Y-215040000D01*
X164065000Y-215040000D02*
X164065000Y-216960000D01*
X164065000Y-216960000D02*
X166750000Y-216960000D01*
%TO.C,D1419*%
X162250000Y-215040000D02*
X159565000Y-215040000D01*
X159565000Y-215040000D02*
X159565000Y-216960000D01*
X159565000Y-216960000D02*
X162250000Y-216960000D01*
%TO.C,D1418*%
X157750000Y-215040000D02*
X155065000Y-215040000D01*
X155065000Y-215040000D02*
X155065000Y-216960000D01*
X155065000Y-216960000D02*
X157750000Y-216960000D01*
%TO.C,D1417*%
X153250000Y-215040000D02*
X150565000Y-215040000D01*
X150565000Y-215040000D02*
X150565000Y-216960000D01*
X150565000Y-216960000D02*
X153250000Y-216960000D01*
%TO.C,D1416*%
X135250000Y-205040000D02*
X132565000Y-205040000D01*
X132565000Y-205040000D02*
X132565000Y-206960000D01*
X132565000Y-206960000D02*
X135250000Y-206960000D01*
%TO.C,D1415*%
X139750000Y-205040000D02*
X137065000Y-205040000D01*
X137065000Y-205040000D02*
X137065000Y-206960000D01*
X137065000Y-206960000D02*
X139750000Y-206960000D01*
%TO.C,D1414*%
X144250000Y-205040000D02*
X141565000Y-205040000D01*
X141565000Y-205040000D02*
X141565000Y-206960000D01*
X141565000Y-206960000D02*
X144250000Y-206960000D01*
%TO.C,D1413*%
X148750000Y-205040000D02*
X146065000Y-205040000D01*
X146065000Y-205040000D02*
X146065000Y-206960000D01*
X146065000Y-206960000D02*
X148750000Y-206960000D01*
%TO.C,D1412*%
X148812500Y-215040000D02*
X146127500Y-215040000D01*
X146127500Y-215040000D02*
X146127500Y-216960000D01*
X146127500Y-216960000D02*
X148812500Y-216960000D01*
%TO.C,D1411*%
X144250000Y-215040000D02*
X141565000Y-215040000D01*
X141565000Y-215040000D02*
X141565000Y-216960000D01*
X141565000Y-216960000D02*
X144250000Y-216960000D01*
%TO.C,D1410*%
X139750000Y-215040000D02*
X137065000Y-215040000D01*
X137065000Y-215040000D02*
X137065000Y-216960000D01*
X137065000Y-216960000D02*
X139750000Y-216960000D01*
%TO.C,D1409*%
X135250000Y-215040000D02*
X132565000Y-215040000D01*
X132565000Y-215040000D02*
X132565000Y-216960000D01*
X132565000Y-216960000D02*
X135250000Y-216960000D01*
%TO.C,D1408*%
X117250000Y-205040000D02*
X114565000Y-205040000D01*
X114565000Y-205040000D02*
X114565000Y-206960000D01*
X114565000Y-206960000D02*
X117250000Y-206960000D01*
%TO.C,D1407*%
X121750000Y-205040000D02*
X119065000Y-205040000D01*
X119065000Y-205040000D02*
X119065000Y-206960000D01*
X119065000Y-206960000D02*
X121750000Y-206960000D01*
%TO.C,D1406*%
X126250000Y-205040000D02*
X123565000Y-205040000D01*
X123565000Y-205040000D02*
X123565000Y-206960000D01*
X123565000Y-206960000D02*
X126250000Y-206960000D01*
%TO.C,D1405*%
X130750000Y-205040000D02*
X128065000Y-205040000D01*
X128065000Y-205040000D02*
X128065000Y-206960000D01*
X128065000Y-206960000D02*
X130750000Y-206960000D01*
%TO.C,D1404*%
X130750000Y-215040000D02*
X128065000Y-215040000D01*
X128065000Y-215040000D02*
X128065000Y-216960000D01*
X128065000Y-216960000D02*
X130750000Y-216960000D01*
%TO.C,D1403*%
X126250000Y-215040000D02*
X123565000Y-215040000D01*
X123565000Y-215040000D02*
X123565000Y-216960000D01*
X123565000Y-216960000D02*
X126250000Y-216960000D01*
%TO.C,D1402*%
X121687500Y-215040000D02*
X119002500Y-215040000D01*
X119002500Y-215040000D02*
X119002500Y-216960000D01*
X119002500Y-216960000D02*
X121687500Y-216960000D01*
%TO.C,D1401*%
X117250000Y-215040000D02*
X114565000Y-215040000D01*
X114565000Y-215040000D02*
X114565000Y-216960000D01*
X114565000Y-216960000D02*
X117250000Y-216960000D01*
%TO.C,C1414*%
X166740000Y-209140580D02*
X166740000Y-208859420D01*
X167760000Y-209140580D02*
X167760000Y-208859420D01*
%TO.C,C1413*%
X148740000Y-209140580D02*
X148740000Y-208859420D01*
X149760000Y-209140580D02*
X149760000Y-208859420D01*
%TO.C,C1412*%
X130740000Y-209140580D02*
X130740000Y-208859420D01*
X131760000Y-209140580D02*
X131760000Y-208859420D01*
%TO.C,C1411*%
X112740000Y-209140580D02*
X112740000Y-208859420D01*
X113760000Y-209140580D02*
X113760000Y-208859420D01*
%TO.C,C1404*%
X179265000Y-211261252D02*
X179265000Y-210738748D01*
X180735000Y-211261252D02*
X180735000Y-210738748D01*
%TO.C,C1403*%
X161265000Y-211011252D02*
X161265000Y-210488748D01*
X162735000Y-211011252D02*
X162735000Y-210488748D01*
%TO.C,C1402*%
X143265000Y-211011252D02*
X143265000Y-210488748D01*
X144735000Y-211011252D02*
X144735000Y-210488748D01*
%TO.C,C1401*%
X125265000Y-211261252D02*
X125265000Y-210738748D01*
X126735000Y-211261252D02*
X126735000Y-210738748D01*
%TO.C,L1*%
X108850378Y-206690000D02*
X109649622Y-206690000D01*
X108850378Y-207810000D02*
X109649622Y-207810000D01*
%TO.C,C11*%
X107288748Y-201090000D02*
X108711252Y-201090000D01*
X107288748Y-202910000D02*
X108711252Y-202910000D01*
%TO.C,C10*%
X107288748Y-203590000D02*
X108711252Y-203590000D01*
X107288748Y-205410000D02*
X108711252Y-205410000D01*
%TO.C,C9*%
X107288748Y-196090000D02*
X108711252Y-196090000D01*
X107288748Y-197910000D02*
X108711252Y-197910000D01*
%TO.C,C8*%
X107288748Y-198590000D02*
X108711252Y-198590000D01*
X107288748Y-200410000D02*
X108711252Y-200410000D01*
%TO.C,C7*%
X109511252Y-210235000D02*
X108988748Y-210235000D01*
X109511252Y-208765000D02*
X108988748Y-208765000D01*
%TO.C,C5*%
X208359420Y-193740000D02*
X208640580Y-193740000D01*
X208359420Y-194760000D02*
X208640580Y-194760000D01*
%TO.C,R1314*%
X191262742Y-186977500D02*
X191737258Y-186977500D01*
X191262742Y-188022500D02*
X191737258Y-188022500D01*
%TO.C,R1304*%
X191737258Y-184522500D02*
X191262742Y-184522500D01*
X191737258Y-183477500D02*
X191262742Y-183477500D01*
%TO.C,C1304*%
X191640580Y-186260000D02*
X191359420Y-186260000D01*
X191640580Y-185240000D02*
X191359420Y-185240000D01*
%TO.C,R1303*%
X193727500Y-202487258D02*
X193727500Y-202012742D01*
X194772500Y-202487258D02*
X194772500Y-202012742D01*
%TO.C,R1302*%
X108762742Y-214977500D02*
X109237258Y-214977500D01*
X108762742Y-216022500D02*
X109237258Y-216022500D01*
%TO.C,R1301*%
X108762742Y-183477500D02*
X109237258Y-183477500D01*
X108762742Y-184522500D02*
X109237258Y-184522500D01*
%TO.C,R1313*%
X191272500Y-202012742D02*
X191272500Y-202487258D01*
X190227500Y-202012742D02*
X190227500Y-202487258D01*
%TO.C,R1312*%
X109237258Y-212522500D02*
X108762742Y-212522500D01*
X109237258Y-211477500D02*
X108762742Y-211477500D01*
%TO.C,R1311*%
X109237258Y-188022500D02*
X108762742Y-188022500D01*
X109237258Y-186977500D02*
X108762742Y-186977500D01*
%TO.C,C1303*%
X191990000Y-202390580D02*
X191990000Y-202109420D01*
X193010000Y-202390580D02*
X193010000Y-202109420D01*
%TO.C,C1302*%
X108859420Y-213240000D02*
X109140580Y-213240000D01*
X108859420Y-214260000D02*
X109140580Y-214260000D01*
%TO.C,C1301*%
X108859420Y-185240000D02*
X109140580Y-185240000D01*
X108859420Y-186260000D02*
X109140580Y-186260000D01*
%TO.C,SW1301*%
X102615340Y-185100000D02*
X97384660Y-185100000D01*
X104500000Y-190500000D02*
G75*
G03*
X104500000Y-190500000I-4500000J0D01*
G01*
X102615340Y-185100000D02*
G75*
G02*
X97384660Y-185100000I-2615340J-5400000D01*
G01*
%TO.C,SW1303*%
X202615340Y-204600000D02*
X197384660Y-204600000D01*
X204500000Y-210000000D02*
G75*
G03*
X204500000Y-210000000I-4500000J0D01*
G01*
X202615340Y-204600000D02*
G75*
G02*
X197384660Y-204600000I-2615340J-5400000D01*
G01*
%TO.C,SW1302*%
X104500000Y-210000000D02*
G75*
G03*
X104500000Y-210000000I-4500000J0D01*
G01*
X102615340Y-204600000D02*
X97384660Y-204600000D01*
X102615340Y-204600000D02*
G75*
G02*
X97384660Y-204600000I-2615340J-5400000D01*
G01*
%TO.C,U8*%
X224810000Y-195500000D02*
X224810000Y-192050000D01*
X224810000Y-195500000D02*
X224810000Y-197450000D01*
X214690000Y-195500000D02*
X214690000Y-193550000D01*
X214690000Y-195500000D02*
X214690000Y-197450000D01*
%TO.C,U7*%
X214690000Y-203500000D02*
X214690000Y-206950000D01*
X214690000Y-203500000D02*
X214690000Y-201550000D01*
X224810000Y-203500000D02*
X224810000Y-205450000D01*
X224810000Y-203500000D02*
X224810000Y-201550000D01*
%TO.C,R2*%
X212662258Y-205227500D02*
X212187742Y-205227500D01*
X212662258Y-206272500D02*
X212187742Y-206272500D01*
%TO.C,U4*%
X374690000Y-197000000D02*
X374690000Y-200450000D01*
X374690000Y-197000000D02*
X374690000Y-195050000D01*
X384810000Y-197000000D02*
X384810000Y-198950000D01*
X384810000Y-197000000D02*
X384810000Y-195050000D01*
%TO.C,C3*%
X376359420Y-192760000D02*
X376640580Y-192760000D01*
X376359420Y-191740000D02*
X376640580Y-191740000D01*
%TO.C,U6*%
X210750000Y-193060000D02*
X214200000Y-193060000D01*
X210750000Y-193060000D02*
X208800000Y-193060000D01*
X210750000Y-182940000D02*
X212700000Y-182940000D01*
X210750000Y-182940000D02*
X208800000Y-182940000D01*
%TO.C,U5*%
X210750000Y-206940000D02*
X207300000Y-206940000D01*
X210750000Y-206940000D02*
X212700000Y-206940000D01*
X210750000Y-217060000D02*
X208800000Y-217060000D01*
X210750000Y-217060000D02*
X212700000Y-217060000D01*
%TO.C,R1*%
X379512742Y-192772500D02*
X379987258Y-192772500D01*
X379512742Y-191727500D02*
X379987258Y-191727500D01*
%TO.C,U3*%
X374690000Y-204750000D02*
X374690000Y-208200000D01*
X374690000Y-204750000D02*
X374690000Y-202800000D01*
X384810000Y-204750000D02*
X384810000Y-206700000D01*
X384810000Y-204750000D02*
X384810000Y-202800000D01*
%TO.C,U1202*%
X485440000Y-200500000D02*
X485440000Y-202450000D01*
X485440000Y-200500000D02*
X485440000Y-198550000D01*
X490560000Y-200500000D02*
X490560000Y-202450000D01*
X490560000Y-200500000D02*
X490560000Y-197050000D01*
%TO.C,U1201*%
X502560000Y-200500000D02*
X502560000Y-198550000D01*
X502560000Y-200500000D02*
X502560000Y-202450000D01*
X492440000Y-200500000D02*
X492440000Y-198550000D01*
X492440000Y-200500000D02*
X492440000Y-203950000D01*
%TO.C,U1102*%
X460440000Y-200500000D02*
X460440000Y-202450000D01*
X460440000Y-200500000D02*
X460440000Y-198550000D01*
X465560000Y-200500000D02*
X465560000Y-202450000D01*
X465560000Y-200500000D02*
X465560000Y-197050000D01*
%TO.C,U1101*%
X477560000Y-200500000D02*
X477560000Y-198550000D01*
X477560000Y-200500000D02*
X477560000Y-202450000D01*
X467440000Y-200500000D02*
X467440000Y-198550000D01*
X467440000Y-200500000D02*
X467440000Y-203950000D01*
%TO.C,U1002*%
X435440000Y-200500000D02*
X435440000Y-202450000D01*
X435440000Y-200500000D02*
X435440000Y-198550000D01*
X440560000Y-200500000D02*
X440560000Y-202450000D01*
X440560000Y-200500000D02*
X440560000Y-197050000D01*
%TO.C,U1001*%
X452560000Y-200500000D02*
X452560000Y-198550000D01*
X452560000Y-200500000D02*
X452560000Y-202450000D01*
X442440000Y-200500000D02*
X442440000Y-198550000D01*
X442440000Y-200500000D02*
X442440000Y-203950000D01*
%TO.C,U902*%
X410440000Y-200500000D02*
X410440000Y-202450000D01*
X410440000Y-200500000D02*
X410440000Y-198550000D01*
X415560000Y-200500000D02*
X415560000Y-202450000D01*
X415560000Y-200500000D02*
X415560000Y-197050000D01*
%TO.C,U901*%
X427560000Y-200500000D02*
X427560000Y-198550000D01*
X427560000Y-200500000D02*
X427560000Y-202450000D01*
X417440000Y-200500000D02*
X417440000Y-198550000D01*
X417440000Y-200500000D02*
X417440000Y-203950000D01*
%TO.C,U802*%
X385440000Y-200500000D02*
X385440000Y-202450000D01*
X385440000Y-200500000D02*
X385440000Y-198550000D01*
X390560000Y-200500000D02*
X390560000Y-202450000D01*
X390560000Y-200500000D02*
X390560000Y-197050000D01*
%TO.C,U801*%
X402560000Y-200500000D02*
X402560000Y-198550000D01*
X402560000Y-200500000D02*
X402560000Y-202450000D01*
X392440000Y-200500000D02*
X392440000Y-198550000D01*
X392440000Y-200500000D02*
X392440000Y-203950000D01*
%TO.C,U702*%
X350440000Y-200500000D02*
X350440000Y-202450000D01*
X350440000Y-200500000D02*
X350440000Y-198550000D01*
X355560000Y-200500000D02*
X355560000Y-202450000D01*
X355560000Y-200500000D02*
X355560000Y-197050000D01*
%TO.C,U701*%
X367560000Y-200500000D02*
X367560000Y-198550000D01*
X367560000Y-200500000D02*
X367560000Y-202450000D01*
X357440000Y-200500000D02*
X357440000Y-198550000D01*
X357440000Y-200500000D02*
X357440000Y-203950000D01*
%TO.C,U602*%
X325440000Y-200500000D02*
X325440000Y-202450000D01*
X325440000Y-200500000D02*
X325440000Y-198550000D01*
X330560000Y-200500000D02*
X330560000Y-202450000D01*
X330560000Y-200500000D02*
X330560000Y-197050000D01*
%TO.C,U601*%
X342560000Y-200500000D02*
X342560000Y-198550000D01*
X342560000Y-200500000D02*
X342560000Y-202450000D01*
X332440000Y-200500000D02*
X332440000Y-198550000D01*
X332440000Y-200500000D02*
X332440000Y-203950000D01*
%TO.C,U502*%
X300440000Y-200500000D02*
X300440000Y-202450000D01*
X300440000Y-200500000D02*
X300440000Y-198550000D01*
X305560000Y-200500000D02*
X305560000Y-202450000D01*
X305560000Y-200500000D02*
X305560000Y-197050000D01*
%TO.C,U501*%
X317560000Y-200500000D02*
X317560000Y-198550000D01*
X317560000Y-200500000D02*
X317560000Y-202450000D01*
X307440000Y-200500000D02*
X307440000Y-198550000D01*
X307440000Y-200500000D02*
X307440000Y-203950000D01*
%TO.C,U402*%
X275440000Y-200500000D02*
X275440000Y-202450000D01*
X275440000Y-200500000D02*
X275440000Y-198550000D01*
X280560000Y-200500000D02*
X280560000Y-202450000D01*
X280560000Y-200500000D02*
X280560000Y-197050000D01*
%TO.C,U401*%
X292560000Y-200500000D02*
X292560000Y-198550000D01*
X292560000Y-200500000D02*
X292560000Y-202450000D01*
X282440000Y-200500000D02*
X282440000Y-198550000D01*
X282440000Y-200500000D02*
X282440000Y-203950000D01*
%TO.C,D1205*%
X507000000Y-201290000D02*
X504315000Y-201290000D01*
X504315000Y-201290000D02*
X504315000Y-203210000D01*
X504315000Y-203210000D02*
X507000000Y-203210000D01*
%TO.C,D1203*%
X507000000Y-192290000D02*
X504315000Y-192290000D01*
X504315000Y-192290000D02*
X504315000Y-194210000D01*
X504315000Y-194210000D02*
X507000000Y-194210000D01*
%TO.C,D1202*%
X507000000Y-187790000D02*
X504315000Y-187790000D01*
X504315000Y-187790000D02*
X504315000Y-189710000D01*
X504315000Y-189710000D02*
X507000000Y-189710000D01*
%TO.C,D1201*%
X507000000Y-183290000D02*
X504315000Y-183290000D01*
X504315000Y-183290000D02*
X504315000Y-185210000D01*
X504315000Y-185210000D02*
X507000000Y-185210000D01*
%TO.C,D1105*%
X482000000Y-201290000D02*
X479315000Y-201290000D01*
X479315000Y-201290000D02*
X479315000Y-203210000D01*
X479315000Y-203210000D02*
X482000000Y-203210000D01*
%TO.C,D1103*%
X482000000Y-192290000D02*
X479315000Y-192290000D01*
X479315000Y-192290000D02*
X479315000Y-194210000D01*
X479315000Y-194210000D02*
X482000000Y-194210000D01*
%TO.C,D1102*%
X482000000Y-187790000D02*
X479315000Y-187790000D01*
X479315000Y-187790000D02*
X479315000Y-189710000D01*
X479315000Y-189710000D02*
X482000000Y-189710000D01*
%TO.C,D1101*%
X482000000Y-183290000D02*
X479315000Y-183290000D01*
X479315000Y-183290000D02*
X479315000Y-185210000D01*
X479315000Y-185210000D02*
X482000000Y-185210000D01*
%TO.C,D1005*%
X457000000Y-201290000D02*
X454315000Y-201290000D01*
X454315000Y-201290000D02*
X454315000Y-203210000D01*
X454315000Y-203210000D02*
X457000000Y-203210000D01*
%TO.C,D1003*%
X457000000Y-192290000D02*
X454315000Y-192290000D01*
X454315000Y-192290000D02*
X454315000Y-194210000D01*
X454315000Y-194210000D02*
X457000000Y-194210000D01*
%TO.C,D1002*%
X457000000Y-187790000D02*
X454315000Y-187790000D01*
X454315000Y-187790000D02*
X454315000Y-189710000D01*
X454315000Y-189710000D02*
X457000000Y-189710000D01*
%TO.C,D1001*%
X457000000Y-183290000D02*
X454315000Y-183290000D01*
X454315000Y-183290000D02*
X454315000Y-185210000D01*
X454315000Y-185210000D02*
X457000000Y-185210000D01*
%TO.C,D905*%
X432000000Y-201290000D02*
X429315000Y-201290000D01*
X429315000Y-201290000D02*
X429315000Y-203210000D01*
X429315000Y-203210000D02*
X432000000Y-203210000D01*
%TO.C,D903*%
X432000000Y-192290000D02*
X429315000Y-192290000D01*
X429315000Y-192290000D02*
X429315000Y-194210000D01*
X429315000Y-194210000D02*
X432000000Y-194210000D01*
%TO.C,D902*%
X432000000Y-187790000D02*
X429315000Y-187790000D01*
X429315000Y-187790000D02*
X429315000Y-189710000D01*
X429315000Y-189710000D02*
X432000000Y-189710000D01*
%TO.C,D901*%
X432000000Y-183290000D02*
X429315000Y-183290000D01*
X429315000Y-183290000D02*
X429315000Y-185210000D01*
X429315000Y-185210000D02*
X432000000Y-185210000D01*
%TO.C,D805*%
X407000000Y-201290000D02*
X404315000Y-201290000D01*
X404315000Y-201290000D02*
X404315000Y-203210000D01*
X404315000Y-203210000D02*
X407000000Y-203210000D01*
%TO.C,D803*%
X407000000Y-192290000D02*
X404315000Y-192290000D01*
X404315000Y-192290000D02*
X404315000Y-194210000D01*
X404315000Y-194210000D02*
X407000000Y-194210000D01*
%TO.C,D802*%
X407000000Y-187790000D02*
X404315000Y-187790000D01*
X404315000Y-187790000D02*
X404315000Y-189710000D01*
X404315000Y-189710000D02*
X407000000Y-189710000D01*
%TO.C,D801*%
X407000000Y-183290000D02*
X404315000Y-183290000D01*
X404315000Y-183290000D02*
X404315000Y-185210000D01*
X404315000Y-185210000D02*
X407000000Y-185210000D01*
%TO.C,D705*%
X372000000Y-201290000D02*
X369315000Y-201290000D01*
X369315000Y-201290000D02*
X369315000Y-203210000D01*
X369315000Y-203210000D02*
X372000000Y-203210000D01*
%TO.C,D703*%
X372000000Y-192290000D02*
X369315000Y-192290000D01*
X369315000Y-192290000D02*
X369315000Y-194210000D01*
X369315000Y-194210000D02*
X372000000Y-194210000D01*
%TO.C,D702*%
X372000000Y-187790000D02*
X369315000Y-187790000D01*
X369315000Y-187790000D02*
X369315000Y-189710000D01*
X369315000Y-189710000D02*
X372000000Y-189710000D01*
%TO.C,D701*%
X372000000Y-183290000D02*
X369315000Y-183290000D01*
X369315000Y-183290000D02*
X369315000Y-185210000D01*
X369315000Y-185210000D02*
X372000000Y-185210000D01*
%TO.C,D605*%
X347000000Y-201290000D02*
X344315000Y-201290000D01*
X344315000Y-201290000D02*
X344315000Y-203210000D01*
X344315000Y-203210000D02*
X347000000Y-203210000D01*
%TO.C,D603*%
X347000000Y-192290000D02*
X344315000Y-192290000D01*
X344315000Y-192290000D02*
X344315000Y-194210000D01*
X344315000Y-194210000D02*
X347000000Y-194210000D01*
%TO.C,D602*%
X347000000Y-187790000D02*
X344315000Y-187790000D01*
X344315000Y-187790000D02*
X344315000Y-189710000D01*
X344315000Y-189710000D02*
X347000000Y-189710000D01*
%TO.C,D601*%
X347000000Y-183290000D02*
X344315000Y-183290000D01*
X344315000Y-183290000D02*
X344315000Y-185210000D01*
X344315000Y-185210000D02*
X347000000Y-185210000D01*
%TO.C,D505*%
X322000000Y-201290000D02*
X319315000Y-201290000D01*
X319315000Y-201290000D02*
X319315000Y-203210000D01*
X319315000Y-203210000D02*
X322000000Y-203210000D01*
%TO.C,D503*%
X322000000Y-192290000D02*
X319315000Y-192290000D01*
X319315000Y-192290000D02*
X319315000Y-194210000D01*
X319315000Y-194210000D02*
X322000000Y-194210000D01*
%TO.C,D502*%
X322000000Y-187790000D02*
X319315000Y-187790000D01*
X319315000Y-187790000D02*
X319315000Y-189710000D01*
X319315000Y-189710000D02*
X322000000Y-189710000D01*
%TO.C,D501*%
X322000000Y-183290000D02*
X319315000Y-183290000D01*
X319315000Y-183290000D02*
X319315000Y-185210000D01*
X319315000Y-185210000D02*
X322000000Y-185210000D01*
%TO.C,D405*%
X297000000Y-201290000D02*
X294315000Y-201290000D01*
X294315000Y-201290000D02*
X294315000Y-203210000D01*
X294315000Y-203210000D02*
X297000000Y-203210000D01*
%TO.C,D403*%
X297000000Y-192290000D02*
X294315000Y-192290000D01*
X294315000Y-192290000D02*
X294315000Y-194210000D01*
X294315000Y-194210000D02*
X297000000Y-194210000D01*
%TO.C,D402*%
X297000000Y-187790000D02*
X294315000Y-187790000D01*
X294315000Y-187790000D02*
X294315000Y-189710000D01*
X294315000Y-189710000D02*
X297000000Y-189710000D01*
%TO.C,D401*%
X297000000Y-183290000D02*
X294315000Y-183290000D01*
X294315000Y-183290000D02*
X294315000Y-185210000D01*
X294315000Y-185210000D02*
X297000000Y-185210000D01*
%TO.C,C1204*%
X487140580Y-196010000D02*
X486859420Y-196010000D01*
X487140580Y-194990000D02*
X486859420Y-194990000D01*
%TO.C,C1202*%
X487761252Y-216735000D02*
X487238748Y-216735000D01*
X487761252Y-215265000D02*
X487238748Y-215265000D01*
%TO.C,C1201*%
X492010000Y-198359420D02*
X492010000Y-198640580D01*
X490990000Y-198359420D02*
X490990000Y-198640580D01*
%TO.C,C1104*%
X462140580Y-196010000D02*
X461859420Y-196010000D01*
X462140580Y-194990000D02*
X461859420Y-194990000D01*
%TO.C,C1102*%
X462761252Y-216735000D02*
X462238748Y-216735000D01*
X462761252Y-215265000D02*
X462238748Y-215265000D01*
%TO.C,C1101*%
X467010000Y-198359420D02*
X467010000Y-198640580D01*
X465990000Y-198359420D02*
X465990000Y-198640580D01*
%TO.C,C1004*%
X437140580Y-196010000D02*
X436859420Y-196010000D01*
X437140580Y-194990000D02*
X436859420Y-194990000D01*
%TO.C,C1002*%
X437761252Y-216735000D02*
X437238748Y-216735000D01*
X437761252Y-215265000D02*
X437238748Y-215265000D01*
%TO.C,C1001*%
X442010000Y-198359420D02*
X442010000Y-198640580D01*
X440990000Y-198359420D02*
X440990000Y-198640580D01*
%TO.C,C904*%
X412140580Y-196010000D02*
X411859420Y-196010000D01*
X412140580Y-194990000D02*
X411859420Y-194990000D01*
%TO.C,C902*%
X412761252Y-216735000D02*
X412238748Y-216735000D01*
X412761252Y-215265000D02*
X412238748Y-215265000D01*
%TO.C,C901*%
X417010000Y-198359420D02*
X417010000Y-198640580D01*
X415990000Y-198359420D02*
X415990000Y-198640580D01*
%TO.C,C804*%
X387140580Y-196010000D02*
X386859420Y-196010000D01*
X387140580Y-194990000D02*
X386859420Y-194990000D01*
%TO.C,C802*%
X387761252Y-217235000D02*
X387238748Y-217235000D01*
X387761252Y-215765000D02*
X387238748Y-215765000D01*
%TO.C,C801*%
X392010000Y-198359420D02*
X392010000Y-198640580D01*
X390990000Y-198359420D02*
X390990000Y-198640580D01*
%TO.C,C704*%
X352140580Y-196010000D02*
X351859420Y-196010000D01*
X352140580Y-194990000D02*
X351859420Y-194990000D01*
%TO.C,C702*%
X352761252Y-216735000D02*
X352238748Y-216735000D01*
X352761252Y-215265000D02*
X352238748Y-215265000D01*
%TO.C,C701*%
X357010000Y-198359420D02*
X357010000Y-198640580D01*
X355990000Y-198359420D02*
X355990000Y-198640580D01*
%TO.C,C604*%
X327140580Y-196010000D02*
X326859420Y-196010000D01*
X327140580Y-194990000D02*
X326859420Y-194990000D01*
%TO.C,C602*%
X327761252Y-216735000D02*
X327238748Y-216735000D01*
X327761252Y-215265000D02*
X327238748Y-215265000D01*
%TO.C,C601*%
X332010000Y-198359420D02*
X332010000Y-198640580D01*
X330990000Y-198359420D02*
X330990000Y-198640580D01*
%TO.C,C504*%
X302140580Y-196010000D02*
X301859420Y-196010000D01*
X302140580Y-194990000D02*
X301859420Y-194990000D01*
%TO.C,C502*%
X302761252Y-216735000D02*
X302238748Y-216735000D01*
X302761252Y-215265000D02*
X302238748Y-215265000D01*
%TO.C,C501*%
X307010000Y-198359420D02*
X307010000Y-198640580D01*
X305990000Y-198359420D02*
X305990000Y-198640580D01*
%TO.C,C404*%
X277140580Y-196010000D02*
X276859420Y-196010000D01*
X277140580Y-194990000D02*
X276859420Y-194990000D01*
%TO.C,C402*%
X277761252Y-216735000D02*
X277238748Y-216735000D01*
X277761252Y-215265000D02*
X277238748Y-215265000D01*
%TO.C,C401*%
X282010000Y-198359420D02*
X282010000Y-198640580D01*
X280990000Y-198359420D02*
X280990000Y-198640580D01*
%TO.C,U301*%
X267560000Y-200500000D02*
X267560000Y-198550000D01*
X267560000Y-200500000D02*
X267560000Y-202450000D01*
X257440000Y-200500000D02*
X257440000Y-198550000D01*
X257440000Y-200500000D02*
X257440000Y-203950000D01*
%TO.C,U302*%
X250440000Y-200500000D02*
X250440000Y-202450000D01*
X250440000Y-200500000D02*
X250440000Y-198550000D01*
X255560000Y-200500000D02*
X255560000Y-202450000D01*
X255560000Y-200500000D02*
X255560000Y-197050000D01*
%TO.C,D301*%
X272000000Y-183290000D02*
X269315000Y-183290000D01*
X269315000Y-183290000D02*
X269315000Y-185210000D01*
X269315000Y-185210000D02*
X272000000Y-185210000D01*
%TO.C,D302*%
X272000000Y-187790000D02*
X269315000Y-187790000D01*
X269315000Y-187790000D02*
X269315000Y-189710000D01*
X269315000Y-189710000D02*
X272000000Y-189710000D01*
%TO.C,D303*%
X272000000Y-192290000D02*
X269315000Y-192290000D01*
X269315000Y-192290000D02*
X269315000Y-194210000D01*
X269315000Y-194210000D02*
X272000000Y-194210000D01*
%TO.C,D305*%
X272000000Y-201290000D02*
X269315000Y-201290000D01*
X269315000Y-201290000D02*
X269315000Y-203210000D01*
X269315000Y-203210000D02*
X272000000Y-203210000D01*
%TO.C,C301*%
X257010000Y-198359420D02*
X257010000Y-198640580D01*
X255990000Y-198359420D02*
X255990000Y-198640580D01*
%TO.C,C302*%
X252761252Y-216735000D02*
X252238748Y-216735000D01*
X252761252Y-215265000D02*
X252238748Y-215265000D01*
%TO.C,C304*%
X252140580Y-196010000D02*
X251859420Y-196010000D01*
X252140580Y-194990000D02*
X251859420Y-194990000D01*
%TO.C,U202*%
X225440000Y-200500000D02*
X225440000Y-202450000D01*
X225440000Y-200500000D02*
X225440000Y-198550000D01*
X230560000Y-200500000D02*
X230560000Y-202450000D01*
X230560000Y-200500000D02*
X230560000Y-197050000D01*
%TO.C,U201*%
X242560000Y-200500000D02*
X242560000Y-198550000D01*
X242560000Y-200500000D02*
X242560000Y-202450000D01*
X232440000Y-200500000D02*
X232440000Y-198550000D01*
X232440000Y-200500000D02*
X232440000Y-203950000D01*
%TO.C,D205*%
X247000000Y-201290000D02*
X244315000Y-201290000D01*
X244315000Y-201290000D02*
X244315000Y-203210000D01*
X244315000Y-203210000D02*
X247000000Y-203210000D01*
%TO.C,D203*%
X247000000Y-192290000D02*
X244315000Y-192290000D01*
X244315000Y-192290000D02*
X244315000Y-194210000D01*
X244315000Y-194210000D02*
X247000000Y-194210000D01*
%TO.C,D202*%
X247000000Y-187790000D02*
X244315000Y-187790000D01*
X244315000Y-187790000D02*
X244315000Y-189710000D01*
X244315000Y-189710000D02*
X247000000Y-189710000D01*
%TO.C,D201*%
X247000000Y-183290000D02*
X244315000Y-183290000D01*
X244315000Y-183290000D02*
X244315000Y-185210000D01*
X244315000Y-185210000D02*
X247000000Y-185210000D01*
%TO.C,C204*%
X227140580Y-196010000D02*
X226859420Y-196010000D01*
X227140580Y-194990000D02*
X226859420Y-194990000D01*
%TO.C,C202*%
X227711252Y-216735000D02*
X227188748Y-216735000D01*
X227711252Y-215265000D02*
X227188748Y-215265000D01*
%TO.C,C201*%
X232010000Y-198359420D02*
X232010000Y-198640580D01*
X230990000Y-198359420D02*
X230990000Y-198640580D01*
%TO.C,SW1201*%
X497615340Y-204600000D02*
X492384660Y-204600000D01*
X499500000Y-210000000D02*
G75*
G03*
X499500000Y-210000000I-4500000J0D01*
G01*
X497615340Y-204600000D02*
G75*
G02*
X492384660Y-204600000I-2615340J-5400000D01*
G01*
%TO.C,SW1101*%
X472615340Y-204600000D02*
X467384660Y-204600000D01*
X474500000Y-210000000D02*
G75*
G03*
X474500000Y-210000000I-4500000J0D01*
G01*
X472615340Y-204600000D02*
G75*
G02*
X467384660Y-204600000I-2615340J-5400000D01*
G01*
%TO.C,SW1001*%
X447615340Y-204600000D02*
X442384660Y-204600000D01*
X449500000Y-210000000D02*
G75*
G03*
X449500000Y-210000000I-4500000J0D01*
G01*
X447615340Y-204600000D02*
G75*
G02*
X442384660Y-204600000I-2615340J-5400000D01*
G01*
%TO.C,SW901*%
X422615340Y-204600000D02*
X417384660Y-204600000D01*
X424500000Y-210000000D02*
G75*
G03*
X424500000Y-210000000I-4500000J0D01*
G01*
X422615340Y-204600000D02*
G75*
G02*
X417384660Y-204600000I-2615340J-5400000D01*
G01*
%TO.C,SW801*%
X397615340Y-204600000D02*
X392384660Y-204600000D01*
X399500000Y-210000000D02*
G75*
G03*
X399500000Y-210000000I-4500000J0D01*
G01*
X397615340Y-204600000D02*
G75*
G02*
X392384660Y-204600000I-2615340J-5400000D01*
G01*
%TO.C,SW701*%
X362615340Y-204600000D02*
X357384660Y-204600000D01*
X364500000Y-210000000D02*
G75*
G03*
X364500000Y-210000000I-4500000J0D01*
G01*
X362615340Y-204600000D02*
G75*
G02*
X357384660Y-204600000I-2615340J-5400000D01*
G01*
%TO.C,SW601*%
X337615340Y-204600000D02*
X332384660Y-204600000D01*
X339500000Y-210000000D02*
G75*
G03*
X339500000Y-210000000I-4500000J0D01*
G01*
X337615340Y-204600000D02*
G75*
G02*
X332384660Y-204600000I-2615340J-5400000D01*
G01*
%TO.C,SW501*%
X312615340Y-204600000D02*
X307384660Y-204600000D01*
X314500000Y-210000000D02*
G75*
G03*
X314500000Y-210000000I-4500000J0D01*
G01*
X312615340Y-204600000D02*
G75*
G02*
X307384660Y-204600000I-2615340J-5400000D01*
G01*
%TO.C,SW401*%
X287615340Y-204600000D02*
X282384660Y-204600000D01*
X289500000Y-210000000D02*
G75*
G03*
X289500000Y-210000000I-4500000J0D01*
G01*
X287615340Y-204600000D02*
G75*
G02*
X282384660Y-204600000I-2615340J-5400000D01*
G01*
%TO.C,RV1201*%
X490040000Y-196060000D02*
X490040000Y-192600000D01*
X499960000Y-184500000D02*
X490040000Y-184500000D01*
X499960000Y-196060000D02*
X499960000Y-192600000D01*
X490040000Y-188400000D02*
X490040000Y-184500000D01*
X499960000Y-188400000D02*
X499960000Y-184500000D01*
X499960000Y-196060000D02*
X490040000Y-196060000D01*
%TO.C,RV1101*%
X465040000Y-196060000D02*
X465040000Y-192600000D01*
X474960000Y-184500000D02*
X465040000Y-184500000D01*
X474960000Y-196060000D02*
X474960000Y-192600000D01*
X465040000Y-188400000D02*
X465040000Y-184500000D01*
X474960000Y-188400000D02*
X474960000Y-184500000D01*
X474960000Y-196060000D02*
X465040000Y-196060000D01*
%TO.C,RV1001*%
X440040000Y-196060000D02*
X440040000Y-192600000D01*
X449960000Y-184500000D02*
X440040000Y-184500000D01*
X449960000Y-196060000D02*
X449960000Y-192600000D01*
X440040000Y-188400000D02*
X440040000Y-184500000D01*
X449960000Y-188400000D02*
X449960000Y-184500000D01*
X449960000Y-196060000D02*
X440040000Y-196060000D01*
%TO.C,RV901*%
X415040000Y-196060000D02*
X415040000Y-192600000D01*
X424960000Y-184500000D02*
X415040000Y-184500000D01*
X424960000Y-196060000D02*
X424960000Y-192600000D01*
X415040000Y-188400000D02*
X415040000Y-184500000D01*
X424960000Y-188400000D02*
X424960000Y-184500000D01*
X424960000Y-196060000D02*
X415040000Y-196060000D01*
%TO.C,RV801*%
X390040000Y-196060000D02*
X390040000Y-192600000D01*
X399960000Y-184500000D02*
X390040000Y-184500000D01*
X399960000Y-196060000D02*
X399960000Y-192600000D01*
X390040000Y-188400000D02*
X390040000Y-184500000D01*
X399960000Y-188400000D02*
X399960000Y-184500000D01*
X399960000Y-196060000D02*
X390040000Y-196060000D01*
%TO.C,RV701*%
X355040000Y-196060000D02*
X355040000Y-192600000D01*
X364960000Y-184500000D02*
X355040000Y-184500000D01*
X364960000Y-196060000D02*
X364960000Y-192600000D01*
X355040000Y-188400000D02*
X355040000Y-184500000D01*
X364960000Y-188400000D02*
X364960000Y-184500000D01*
X364960000Y-196060000D02*
X355040000Y-196060000D01*
%TO.C,RV601*%
X330040000Y-196060000D02*
X330040000Y-192600000D01*
X339960000Y-184500000D02*
X330040000Y-184500000D01*
X339960000Y-196060000D02*
X339960000Y-192600000D01*
X330040000Y-188400000D02*
X330040000Y-184500000D01*
X339960000Y-188400000D02*
X339960000Y-184500000D01*
X339960000Y-196060000D02*
X330040000Y-196060000D01*
%TO.C,RV501*%
X305040000Y-196060000D02*
X305040000Y-192600000D01*
X314960000Y-184500000D02*
X305040000Y-184500000D01*
X314960000Y-196060000D02*
X314960000Y-192600000D01*
X305040000Y-188400000D02*
X305040000Y-184500000D01*
X314960000Y-188400000D02*
X314960000Y-184500000D01*
X314960000Y-196060000D02*
X305040000Y-196060000D01*
%TO.C,RV401*%
X280040000Y-196060000D02*
X280040000Y-192600000D01*
X289960000Y-184500000D02*
X280040000Y-184500000D01*
X289960000Y-196060000D02*
X289960000Y-192600000D01*
X280040000Y-188400000D02*
X280040000Y-184500000D01*
X289960000Y-188400000D02*
X289960000Y-184500000D01*
X289960000Y-196060000D02*
X280040000Y-196060000D01*
%TO.C,R1203*%
X487022500Y-205762742D02*
X487022500Y-206237258D01*
X485977500Y-205762742D02*
X485977500Y-206237258D01*
%TO.C,R1202*%
X485977500Y-212737258D02*
X485977500Y-212262742D01*
X487022500Y-212737258D02*
X487022500Y-212262742D01*
%TO.C,R1201*%
X490977500Y-202737258D02*
X490977500Y-202262742D01*
X492022500Y-202737258D02*
X492022500Y-202262742D01*
%TO.C,R1103*%
X462022500Y-205762742D02*
X462022500Y-206237258D01*
X460977500Y-205762742D02*
X460977500Y-206237258D01*
%TO.C,R1102*%
X460977500Y-212737258D02*
X460977500Y-212262742D01*
X462022500Y-212737258D02*
X462022500Y-212262742D01*
%TO.C,R1101*%
X465977500Y-202737258D02*
X465977500Y-202262742D01*
X467022500Y-202737258D02*
X467022500Y-202262742D01*
%TO.C,R1003*%
X437022500Y-205762742D02*
X437022500Y-206237258D01*
X435977500Y-205762742D02*
X435977500Y-206237258D01*
%TO.C,R1002*%
X435977500Y-212737258D02*
X435977500Y-212262742D01*
X437022500Y-212737258D02*
X437022500Y-212262742D01*
%TO.C,R1001*%
X440977500Y-202737258D02*
X440977500Y-202262742D01*
X442022500Y-202737258D02*
X442022500Y-202262742D01*
%TO.C,R903*%
X412022500Y-205762742D02*
X412022500Y-206237258D01*
X410977500Y-205762742D02*
X410977500Y-206237258D01*
%TO.C,R902*%
X410977500Y-212737258D02*
X410977500Y-212262742D01*
X412022500Y-212737258D02*
X412022500Y-212262742D01*
%TO.C,R901*%
X415977500Y-202737258D02*
X415977500Y-202262742D01*
X417022500Y-202737258D02*
X417022500Y-202262742D01*
%TO.C,R803*%
X387022500Y-205762742D02*
X387022500Y-206237258D01*
X385977500Y-205762742D02*
X385977500Y-206237258D01*
%TO.C,R802*%
X385977500Y-212737258D02*
X385977500Y-212262742D01*
X387022500Y-212737258D02*
X387022500Y-212262742D01*
%TO.C,R801*%
X390977500Y-202737258D02*
X390977500Y-202262742D01*
X392022500Y-202737258D02*
X392022500Y-202262742D01*
%TO.C,R703*%
X352022500Y-205762742D02*
X352022500Y-206237258D01*
X350977500Y-205762742D02*
X350977500Y-206237258D01*
%TO.C,R702*%
X350977500Y-212737258D02*
X350977500Y-212262742D01*
X352022500Y-212737258D02*
X352022500Y-212262742D01*
%TO.C,R701*%
X355977500Y-202737258D02*
X355977500Y-202262742D01*
X357022500Y-202737258D02*
X357022500Y-202262742D01*
%TO.C,R603*%
X327022500Y-205762742D02*
X327022500Y-206237258D01*
X325977500Y-205762742D02*
X325977500Y-206237258D01*
%TO.C,R602*%
X325977500Y-212737258D02*
X325977500Y-212262742D01*
X327022500Y-212737258D02*
X327022500Y-212262742D01*
%TO.C,R601*%
X330977500Y-202737258D02*
X330977500Y-202262742D01*
X332022500Y-202737258D02*
X332022500Y-202262742D01*
%TO.C,R503*%
X302022500Y-205762742D02*
X302022500Y-206237258D01*
X300977500Y-205762742D02*
X300977500Y-206237258D01*
%TO.C,R502*%
X300977500Y-212737258D02*
X300977500Y-212262742D01*
X302022500Y-212737258D02*
X302022500Y-212262742D01*
%TO.C,R501*%
X305977500Y-202737258D02*
X305977500Y-202262742D01*
X307022500Y-202737258D02*
X307022500Y-202262742D01*
%TO.C,R403*%
X277022500Y-205762742D02*
X277022500Y-206237258D01*
X275977500Y-205762742D02*
X275977500Y-206237258D01*
%TO.C,R402*%
X275977500Y-212737258D02*
X275977500Y-212262742D01*
X277022500Y-212737258D02*
X277022500Y-212262742D01*
%TO.C,R401*%
X280977500Y-202737258D02*
X280977500Y-202262742D01*
X282022500Y-202737258D02*
X282022500Y-202262742D01*
%TO.C,D1208*%
X507000000Y-214790000D02*
X504315000Y-214790000D01*
X504315000Y-214790000D02*
X504315000Y-216710000D01*
X504315000Y-216710000D02*
X507000000Y-216710000D01*
%TO.C,D1207*%
X507000000Y-210290000D02*
X504315000Y-210290000D01*
X504315000Y-210290000D02*
X504315000Y-212210000D01*
X504315000Y-212210000D02*
X507000000Y-212210000D01*
%TO.C,D1206*%
X507000000Y-205790000D02*
X504315000Y-205790000D01*
X504315000Y-205790000D02*
X504315000Y-207710000D01*
X504315000Y-207710000D02*
X507000000Y-207710000D01*
%TO.C,D1204*%
X507000000Y-196790000D02*
X504315000Y-196790000D01*
X504315000Y-196790000D02*
X504315000Y-198710000D01*
X504315000Y-198710000D02*
X507000000Y-198710000D01*
%TO.C,D1108*%
X482000000Y-214790000D02*
X479315000Y-214790000D01*
X479315000Y-214790000D02*
X479315000Y-216710000D01*
X479315000Y-216710000D02*
X482000000Y-216710000D01*
%TO.C,D1107*%
X482000000Y-210290000D02*
X479315000Y-210290000D01*
X479315000Y-210290000D02*
X479315000Y-212210000D01*
X479315000Y-212210000D02*
X482000000Y-212210000D01*
%TO.C,D1106*%
X482000000Y-205790000D02*
X479315000Y-205790000D01*
X479315000Y-205790000D02*
X479315000Y-207710000D01*
X479315000Y-207710000D02*
X482000000Y-207710000D01*
%TO.C,D1104*%
X482000000Y-196790000D02*
X479315000Y-196790000D01*
X479315000Y-196790000D02*
X479315000Y-198710000D01*
X479315000Y-198710000D02*
X482000000Y-198710000D01*
%TO.C,D1008*%
X457000000Y-214790000D02*
X454315000Y-214790000D01*
X454315000Y-214790000D02*
X454315000Y-216710000D01*
X454315000Y-216710000D02*
X457000000Y-216710000D01*
%TO.C,D1007*%
X457000000Y-210290000D02*
X454315000Y-210290000D01*
X454315000Y-210290000D02*
X454315000Y-212210000D01*
X454315000Y-212210000D02*
X457000000Y-212210000D01*
%TO.C,D1006*%
X457000000Y-205790000D02*
X454315000Y-205790000D01*
X454315000Y-205790000D02*
X454315000Y-207710000D01*
X454315000Y-207710000D02*
X457000000Y-207710000D01*
%TO.C,D1004*%
X457000000Y-196790000D02*
X454315000Y-196790000D01*
X454315000Y-196790000D02*
X454315000Y-198710000D01*
X454315000Y-198710000D02*
X457000000Y-198710000D01*
%TO.C,D908*%
X432000000Y-214790000D02*
X429315000Y-214790000D01*
X429315000Y-214790000D02*
X429315000Y-216710000D01*
X429315000Y-216710000D02*
X432000000Y-216710000D01*
%TO.C,D907*%
X432000000Y-210290000D02*
X429315000Y-210290000D01*
X429315000Y-210290000D02*
X429315000Y-212210000D01*
X429315000Y-212210000D02*
X432000000Y-212210000D01*
%TO.C,D906*%
X432000000Y-205790000D02*
X429315000Y-205790000D01*
X429315000Y-205790000D02*
X429315000Y-207710000D01*
X429315000Y-207710000D02*
X432000000Y-207710000D01*
%TO.C,D904*%
X432000000Y-196790000D02*
X429315000Y-196790000D01*
X429315000Y-196790000D02*
X429315000Y-198710000D01*
X429315000Y-198710000D02*
X432000000Y-198710000D01*
%TO.C,D808*%
X407000000Y-214790000D02*
X404315000Y-214790000D01*
X404315000Y-214790000D02*
X404315000Y-216710000D01*
X404315000Y-216710000D02*
X407000000Y-216710000D01*
%TO.C,D807*%
X407000000Y-210290000D02*
X404315000Y-210290000D01*
X404315000Y-210290000D02*
X404315000Y-212210000D01*
X404315000Y-212210000D02*
X407000000Y-212210000D01*
%TO.C,D806*%
X407000000Y-205790000D02*
X404315000Y-205790000D01*
X404315000Y-205790000D02*
X404315000Y-207710000D01*
X404315000Y-207710000D02*
X407000000Y-207710000D01*
%TO.C,D804*%
X407000000Y-196790000D02*
X404315000Y-196790000D01*
X404315000Y-196790000D02*
X404315000Y-198710000D01*
X404315000Y-198710000D02*
X407000000Y-198710000D01*
%TO.C,D708*%
X372000000Y-214790000D02*
X369315000Y-214790000D01*
X369315000Y-214790000D02*
X369315000Y-216710000D01*
X369315000Y-216710000D02*
X372000000Y-216710000D01*
%TO.C,D707*%
X372000000Y-210290000D02*
X369315000Y-210290000D01*
X369315000Y-210290000D02*
X369315000Y-212210000D01*
X369315000Y-212210000D02*
X372000000Y-212210000D01*
%TO.C,D706*%
X372000000Y-205790000D02*
X369315000Y-205790000D01*
X369315000Y-205790000D02*
X369315000Y-207710000D01*
X369315000Y-207710000D02*
X372000000Y-207710000D01*
%TO.C,D704*%
X372000000Y-196790000D02*
X369315000Y-196790000D01*
X369315000Y-196790000D02*
X369315000Y-198710000D01*
X369315000Y-198710000D02*
X372000000Y-198710000D01*
%TO.C,D608*%
X347000000Y-214790000D02*
X344315000Y-214790000D01*
X344315000Y-214790000D02*
X344315000Y-216710000D01*
X344315000Y-216710000D02*
X347000000Y-216710000D01*
%TO.C,D607*%
X347000000Y-210290000D02*
X344315000Y-210290000D01*
X344315000Y-210290000D02*
X344315000Y-212210000D01*
X344315000Y-212210000D02*
X347000000Y-212210000D01*
%TO.C,D606*%
X347000000Y-205790000D02*
X344315000Y-205790000D01*
X344315000Y-205790000D02*
X344315000Y-207710000D01*
X344315000Y-207710000D02*
X347000000Y-207710000D01*
%TO.C,D604*%
X347000000Y-196790000D02*
X344315000Y-196790000D01*
X344315000Y-196790000D02*
X344315000Y-198710000D01*
X344315000Y-198710000D02*
X347000000Y-198710000D01*
%TO.C,D508*%
X322000000Y-214790000D02*
X319315000Y-214790000D01*
X319315000Y-214790000D02*
X319315000Y-216710000D01*
X319315000Y-216710000D02*
X322000000Y-216710000D01*
%TO.C,D507*%
X322000000Y-210290000D02*
X319315000Y-210290000D01*
X319315000Y-210290000D02*
X319315000Y-212210000D01*
X319315000Y-212210000D02*
X322000000Y-212210000D01*
%TO.C,D506*%
X322000000Y-205790000D02*
X319315000Y-205790000D01*
X319315000Y-205790000D02*
X319315000Y-207710000D01*
X319315000Y-207710000D02*
X322000000Y-207710000D01*
%TO.C,D504*%
X322000000Y-196790000D02*
X319315000Y-196790000D01*
X319315000Y-196790000D02*
X319315000Y-198710000D01*
X319315000Y-198710000D02*
X322000000Y-198710000D01*
%TO.C,D408*%
X297000000Y-214790000D02*
X294315000Y-214790000D01*
X294315000Y-214790000D02*
X294315000Y-216710000D01*
X294315000Y-216710000D02*
X297000000Y-216710000D01*
%TO.C,D407*%
X297000000Y-210290000D02*
X294315000Y-210290000D01*
X294315000Y-210290000D02*
X294315000Y-212210000D01*
X294315000Y-212210000D02*
X297000000Y-212210000D01*
%TO.C,D406*%
X297000000Y-205790000D02*
X294315000Y-205790000D01*
X294315000Y-205790000D02*
X294315000Y-207710000D01*
X294315000Y-207710000D02*
X297000000Y-207710000D01*
%TO.C,D404*%
X297000000Y-196790000D02*
X294315000Y-196790000D01*
X294315000Y-196790000D02*
X294315000Y-198710000D01*
X294315000Y-198710000D02*
X297000000Y-198710000D01*
%TO.C,C1203*%
X487010000Y-209109420D02*
X487010000Y-209390580D01*
X485990000Y-209109420D02*
X485990000Y-209390580D01*
%TO.C,C1103*%
X462010000Y-209109420D02*
X462010000Y-209390580D01*
X460990000Y-209109420D02*
X460990000Y-209390580D01*
%TO.C,C1003*%
X437010000Y-209109420D02*
X437010000Y-209390580D01*
X435990000Y-209109420D02*
X435990000Y-209390580D01*
%TO.C,C903*%
X412010000Y-209109420D02*
X412010000Y-209390580D01*
X410990000Y-209109420D02*
X410990000Y-209390580D01*
%TO.C,C803*%
X387010000Y-209109420D02*
X387010000Y-209390580D01*
X385990000Y-209109420D02*
X385990000Y-209390580D01*
%TO.C,C703*%
X352010000Y-209109420D02*
X352010000Y-209390580D01*
X350990000Y-209109420D02*
X350990000Y-209390580D01*
%TO.C,C603*%
X327010000Y-209109420D02*
X327010000Y-209390580D01*
X325990000Y-209109420D02*
X325990000Y-209390580D01*
%TO.C,C503*%
X302010000Y-209109420D02*
X302010000Y-209390580D01*
X300990000Y-209109420D02*
X300990000Y-209390580D01*
%TO.C,C403*%
X277010000Y-209109420D02*
X277010000Y-209390580D01*
X275990000Y-209109420D02*
X275990000Y-209390580D01*
%TO.C,SW301*%
X262615340Y-204600000D02*
X257384660Y-204600000D01*
X264500000Y-210000000D02*
G75*
G03*
X264500000Y-210000000I-4500000J0D01*
G01*
X262615340Y-204600000D02*
G75*
G02*
X257384660Y-204600000I-2615340J-5400000D01*
G01*
%TO.C,RV301*%
X255040000Y-196060000D02*
X255040000Y-192600000D01*
X264960000Y-184500000D02*
X255040000Y-184500000D01*
X264960000Y-196060000D02*
X264960000Y-192600000D01*
X255040000Y-188400000D02*
X255040000Y-184500000D01*
X264960000Y-188400000D02*
X264960000Y-184500000D01*
X264960000Y-196060000D02*
X255040000Y-196060000D01*
%TO.C,R301*%
X255977500Y-202737258D02*
X255977500Y-202262742D01*
X257022500Y-202737258D02*
X257022500Y-202262742D01*
%TO.C,R302*%
X250977500Y-212737258D02*
X250977500Y-212262742D01*
X252022500Y-212737258D02*
X252022500Y-212262742D01*
%TO.C,R303*%
X252022500Y-205762742D02*
X252022500Y-206237258D01*
X250977500Y-205762742D02*
X250977500Y-206237258D01*
%TO.C,D304*%
X272000000Y-196790000D02*
X269315000Y-196790000D01*
X269315000Y-196790000D02*
X269315000Y-198710000D01*
X269315000Y-198710000D02*
X272000000Y-198710000D01*
%TO.C,D306*%
X272000000Y-205790000D02*
X269315000Y-205790000D01*
X269315000Y-205790000D02*
X269315000Y-207710000D01*
X269315000Y-207710000D02*
X272000000Y-207710000D01*
%TO.C,D307*%
X272000000Y-210290000D02*
X269315000Y-210290000D01*
X269315000Y-210290000D02*
X269315000Y-212210000D01*
X269315000Y-212210000D02*
X272000000Y-212210000D01*
%TO.C,D308*%
X272000000Y-214790000D02*
X269315000Y-214790000D01*
X269315000Y-214790000D02*
X269315000Y-216710000D01*
X269315000Y-216710000D02*
X272000000Y-216710000D01*
%TO.C,C303*%
X252010000Y-209109420D02*
X252010000Y-209390580D01*
X250990000Y-209109420D02*
X250990000Y-209390580D01*
%TO.C,SW201*%
X237615340Y-204600000D02*
X232384660Y-204600000D01*
X239500000Y-210000000D02*
G75*
G03*
X239500000Y-210000000I-4500000J0D01*
G01*
X237615340Y-204600000D02*
G75*
G02*
X232384660Y-204600000I-2615340J-5400000D01*
G01*
%TO.C,RV201*%
X230040000Y-196060000D02*
X230040000Y-192600000D01*
X239960000Y-184500000D02*
X230040000Y-184500000D01*
X239960000Y-196060000D02*
X239960000Y-192600000D01*
X230040000Y-188400000D02*
X230040000Y-184500000D01*
X239960000Y-188400000D02*
X239960000Y-184500000D01*
X239960000Y-196060000D02*
X230040000Y-196060000D01*
%TO.C,R203*%
X228272500Y-205762742D02*
X228272500Y-206237258D01*
X227227500Y-205762742D02*
X227227500Y-206237258D01*
%TO.C,R202*%
X225977500Y-212737258D02*
X225977500Y-212262742D01*
X227022500Y-212737258D02*
X227022500Y-212262742D01*
%TO.C,R201*%
X230977500Y-202737258D02*
X230977500Y-202262742D01*
X232022500Y-202737258D02*
X232022500Y-202262742D01*
%TO.C,D208*%
X247000000Y-214790000D02*
X244315000Y-214790000D01*
X244315000Y-214790000D02*
X244315000Y-216710000D01*
X244315000Y-216710000D02*
X247000000Y-216710000D01*
%TO.C,D207*%
X247000000Y-210290000D02*
X244315000Y-210290000D01*
X244315000Y-210290000D02*
X244315000Y-212210000D01*
X244315000Y-212210000D02*
X247000000Y-212210000D01*
%TO.C,D206*%
X247000000Y-205790000D02*
X244315000Y-205790000D01*
X244315000Y-205790000D02*
X244315000Y-207710000D01*
X244315000Y-207710000D02*
X247000000Y-207710000D01*
%TO.C,D204*%
X247000000Y-196790000D02*
X244315000Y-196790000D01*
X244315000Y-196790000D02*
X244315000Y-198710000D01*
X244315000Y-198710000D02*
X247000000Y-198710000D01*
%TO.C,C203*%
X227010000Y-209109420D02*
X227010000Y-209390580D01*
X225990000Y-209109420D02*
X225990000Y-209390580D01*
%TO.C,C2*%
X209390580Y-206260000D02*
X209109420Y-206260000D01*
X209390580Y-205240000D02*
X209109420Y-205240000D01*
%TO.C,C1*%
X181490000Y-209140580D02*
X181490000Y-208859420D01*
X182510000Y-209140580D02*
X182510000Y-208859420D01*
%TO.C,U106*%
X181750000Y-195925000D02*
X183700000Y-195925000D01*
X181750000Y-195925000D02*
X179800000Y-195925000D01*
X181750000Y-185805000D02*
X183700000Y-185805000D01*
X181750000Y-185805000D02*
X178300000Y-185805000D01*
%TO.C,U105*%
X169050000Y-195925000D02*
X171000000Y-195925000D01*
X169050000Y-195925000D02*
X167100000Y-195925000D01*
X169050000Y-185805000D02*
X171000000Y-185805000D01*
X169050000Y-185805000D02*
X165600000Y-185805000D01*
%TO.C,U104*%
X156350000Y-195925000D02*
X158300000Y-195925000D01*
X156350000Y-195925000D02*
X154400000Y-195925000D01*
X156350000Y-185805000D02*
X158300000Y-185805000D01*
X156350000Y-185805000D02*
X152900000Y-185805000D01*
%TO.C,U103*%
X143650000Y-195925000D02*
X145600000Y-195925000D01*
X143650000Y-195925000D02*
X141700000Y-195925000D01*
X143650000Y-185805000D02*
X145600000Y-185805000D01*
X143650000Y-185805000D02*
X140200000Y-185805000D01*
%TO.C,U102*%
X130950000Y-195925000D02*
X132900000Y-195925000D01*
X130950000Y-195925000D02*
X129000000Y-195925000D01*
X130950000Y-185805000D02*
X132900000Y-185805000D01*
X130950000Y-185805000D02*
X127500000Y-185805000D01*
%TO.C,U101*%
X118250000Y-195925000D02*
X120200000Y-195925000D01*
X118250000Y-195925000D02*
X116300000Y-195925000D01*
X118250000Y-185805000D02*
X120200000Y-185805000D01*
X118250000Y-185805000D02*
X114800000Y-185805000D01*
%TO.C,R106*%
X187384758Y-188530000D02*
X186910242Y-188530000D01*
X187384758Y-187485000D02*
X186910242Y-187485000D01*
%TO.C,R105*%
X174684758Y-188530000D02*
X174210242Y-188530000D01*
X174684758Y-187485000D02*
X174210242Y-187485000D01*
%TO.C,R104*%
X161984758Y-188530000D02*
X161510242Y-188530000D01*
X161984758Y-187485000D02*
X161510242Y-187485000D01*
%TO.C,R103*%
X149284758Y-188530000D02*
X148810242Y-188530000D01*
X149284758Y-187485000D02*
X148810242Y-187485000D01*
%TO.C,R102*%
X136584758Y-188530000D02*
X136110242Y-188530000D01*
X136584758Y-187485000D02*
X136110242Y-187485000D01*
%TO.C,R101*%
X123884758Y-188530000D02*
X123410242Y-188530000D01*
X123884758Y-187485000D02*
X123410242Y-187485000D01*
%TO.C,LED106*%
X175400000Y-201000000D02*
X175400000Y-182000000D01*
X188100000Y-201000000D02*
X188100000Y-182000000D01*
X175400000Y-201000000D02*
X188100000Y-201000000D01*
X175400000Y-182000000D02*
X188100000Y-182000000D01*
%TO.C,LED105*%
X162700000Y-201000000D02*
X162700000Y-182000000D01*
X175400000Y-201000000D02*
X175400000Y-182000000D01*
X162700000Y-201000000D02*
X175400000Y-201000000D01*
X162700000Y-182000000D02*
X175400000Y-182000000D01*
%TO.C,LED104*%
X150000000Y-201000000D02*
X150000000Y-182000000D01*
X162700000Y-201000000D02*
X162700000Y-182000000D01*
X150000000Y-201000000D02*
X162700000Y-201000000D01*
X150000000Y-182000000D02*
X162700000Y-182000000D01*
%TO.C,LED103*%
X137300000Y-201000000D02*
X137300000Y-182000000D01*
X150000000Y-201000000D02*
X150000000Y-182000000D01*
X137300000Y-201000000D02*
X150000000Y-201000000D01*
X137300000Y-182000000D02*
X150000000Y-182000000D01*
%TO.C,LED102*%
X124600000Y-201000000D02*
X124600000Y-182000000D01*
X137300000Y-201000000D02*
X137300000Y-182000000D01*
X124600000Y-201000000D02*
X137300000Y-201000000D01*
X124600000Y-182000000D02*
X137300000Y-182000000D01*
%TO.C,LED101*%
X111900000Y-201000000D02*
X111900000Y-182000000D01*
X124600000Y-201000000D02*
X124600000Y-182000000D01*
X111900000Y-201000000D02*
X124600000Y-201000000D01*
X111900000Y-182000000D02*
X124600000Y-182000000D01*
%TO.C,C116*%
X187006920Y-185910000D02*
X187288080Y-185910000D01*
X187006920Y-186930000D02*
X187288080Y-186930000D01*
%TO.C,C115*%
X174306920Y-185910000D02*
X174588080Y-185910000D01*
X174306920Y-186930000D02*
X174588080Y-186930000D01*
%TO.C,C114*%
X161606920Y-185910000D02*
X161888080Y-185910000D01*
X161606920Y-186930000D02*
X161888080Y-186930000D01*
%TO.C,C113*%
X148906920Y-185910000D02*
X149188080Y-185910000D01*
X148906920Y-186930000D02*
X149188080Y-186930000D01*
%TO.C,C112*%
X136206920Y-185910000D02*
X136488080Y-185910000D01*
X136206920Y-186930000D02*
X136488080Y-186930000D01*
%TO.C,C111*%
X123506920Y-185910000D02*
X123788080Y-185910000D01*
X123506920Y-186930000D02*
X123788080Y-186930000D01*
%TO.C,C106*%
X181890580Y-197407500D02*
X181609420Y-197407500D01*
X181890580Y-196387500D02*
X181609420Y-196387500D01*
%TO.C,C105*%
X169190580Y-197407500D02*
X168909420Y-197407500D01*
X169190580Y-196387500D02*
X168909420Y-196387500D01*
%TO.C,C104*%
X156490580Y-197407500D02*
X156209420Y-197407500D01*
X156490580Y-196387500D02*
X156209420Y-196387500D01*
%TO.C,C103*%
X143790580Y-197407500D02*
X143509420Y-197407500D01*
X143790580Y-196387500D02*
X143509420Y-196387500D01*
%TO.C,C102*%
X131090580Y-197407500D02*
X130809420Y-197407500D01*
X131090580Y-196387500D02*
X130809420Y-196387500D01*
%TO.C,C101*%
X118390580Y-197407500D02*
X118109420Y-197407500D01*
X118390580Y-196387500D02*
X118109420Y-196387500D01*
%TD*%
M02*
