M48
; DRILL file {KiCad (5.1.9-0-10_14)} date Friday, April 09, 2021 at 09:01:32 PM
; FORMAT={-:-/ absolute / inch / decimal}
; #@! TF.CreationDate,2021-04-09T21:01:32+02:00
; #@! TF.GenerationSoftware,Kicad,Pcbnew,(5.1.9-0-10_14)
FMAT,2
INCH
T1C0.0118
T2C0.0315
T3C0.0394
T4C0.0472
T5C0.0591
T6C0.0669
T7C0.0454
T8C0.0827
T9C0.1260
%
G90
G05
T1
X3.4646Y-7.6181
X3.4646Y-8.1299
X3.5827Y-7.6181
X3.5827Y-8.1299
X3.7598Y-7.2441
X3.7598Y-7.2835
X3.7598Y-7.3228
X3.8878Y-7.9517
X3.9128Y-7.9369
X4.065Y-8.4449
X4.2126Y-7.3228
X4.3602Y-7.2441
X4.3602Y-7.313
X4.3602Y-8.0217
X4.3602Y-8.4154
X4.3602Y-8.4843
X4.4094Y-8.0217
X4.4291Y-7.3228
X4.4587Y-8.0217
X4.4587Y-8.1693
X4.4587Y-8.4252
X4.4906Y-7.3894
X4.493Y-7.3394
X4.493Y-7.4394
X4.493Y-7.4894
X4.498Y-8.4045
X4.5079Y-7.9183
X4.5079Y-8.0118
X4.5083Y-8.3321
X4.5965Y-7.9183
X4.5965Y-8.0118
X4.6297Y-8.2874
X4.6297Y-8.3465
X4.6457Y-7.7067
X4.6797Y-8.2579
X4.6797Y-8.3169
X4.7047Y-7.9183
X4.7047Y-8.0118
X4.818Y-7.4644
X4.868Y-7.3644
X4.943Y-7.3394
X4.943Y-7.3394
X4.943Y-7.4019
X4.943Y-7.4019
X4.9606Y-8.2371
X4.993Y-7.3394
X4.993Y-7.3394
X4.993Y-7.4394
X4.993Y-7.4894
X5.0197Y-8.1988
X5.0197Y-8.2283
X5.0197Y-8.376
X5.0197Y-8.4055
X5.0492Y-8.1988
X5.0492Y-8.2283
X5.0492Y-8.376
X5.0492Y-8.4055
X5.093Y-7.7519
X5.1673Y-8.1693
X5.1673Y-8.4252
X5.2067Y-8.4045
X5.2884Y-8.2874
X5.318Y-7.4644
X5.3384Y-8.2874
X5.3384Y-8.3465
X5.368Y-7.3644
X5.3884Y-8.2579
X5.3884Y-8.3169
X5.443Y-7.3394
X5.443Y-7.4019
X5.493Y-7.3394
X5.493Y-7.3394
X5.493Y-7.4394
X5.493Y-7.4894
X5.593Y-7.7519
X5.6693Y-8.2283
X5.818Y-7.4644
X5.868Y-7.3644
X5.876Y-8.1693
X5.876Y-8.4252
X5.9154Y-8.4045
X5.943Y-7.3394
X5.943Y-7.4019
X5.993Y-7.3394
X5.993Y-7.3394
X5.993Y-7.4394
X5.993Y-7.4894
X5.997Y-8.2874
X6.047Y-8.2874
X6.047Y-8.3465
X6.093Y-7.7519
X6.097Y-8.2579
X6.097Y-8.3169
X6.318Y-7.4644
X6.368Y-7.3644
X6.378Y-8.2283
X6.443Y-7.3394
X6.443Y-7.4019
X6.493Y-7.3394
X6.493Y-7.4394
X6.493Y-7.4894
X6.5846Y-8.1693
X6.5846Y-8.4252
X6.593Y-7.7519
X6.624Y-8.4045
X6.7057Y-8.2874
X6.7557Y-8.2874
X6.7557Y-8.3465
X6.8057Y-8.2579
X6.8057Y-8.3169
X6.818Y-7.4644
X6.868Y-7.3644
X6.943Y-7.3394
X6.943Y-7.4019
X6.993Y-7.3394
X6.993Y-7.3394
X6.993Y-7.4394
X6.993Y-7.4894
X7.0866Y-8.2283
X7.093Y-7.7519
X7.1654Y-8.1704
X7.2047Y-8.4055
X7.2819Y-8.4594
X7.2835Y-8.2579
X7.318Y-7.4644
X7.3319Y-8.2571
X7.3327Y-8.4596
X7.368Y-7.3644
X7.372Y-7.4016
X7.3819Y-8.3169
X7.3819Y-8.4596
X7.3967Y-8.008
X7.4111Y-8.3081
X7.4174Y-7.7264
X7.4311Y-8.1594
X7.4311Y-8.4596
X7.4528Y-8.0581
X7.4557Y-7.436
X7.4705Y-7.2441
X7.4705Y-7.313
X7.4754Y-8.2653
X7.4803Y-7.3819
X7.4902Y-7.4311
X7.5049Y-8.3219
X7.5319Y-8.3465
X7.5319Y-8.4596
X7.5394Y-7.8543
X7.5398Y-7.4266
X7.5886Y-7.8543
X7.5935Y-7.4262
X7.6083Y-7.2244
X7.6083Y-7.313
X7.6526Y-7.8346
X7.6919Y-8.189
X7.6919Y-8.3711
X7.7165Y-7.8986
X7.7854Y-8.4558
X7.9085Y-7.8986
X7.9517Y-8.4547
X7.9778Y-7.963
X8.0069Y-7.9626
X8.0217Y-7.8051
X8.0709Y-8.3507
X8.1102Y-8.0512
X8.1447Y-7.3228
X8.1447Y-7.5787
X8.2136Y-7.6375
X8.248Y-7.8248
X8.252Y-8.5197
X8.253Y-7.2266
X8.253Y-7.2766
X8.2579Y-7.4163
X8.2579Y-7.5394
X8.2603Y-7.3351
X8.2825Y-8.2333
X8.2885Y-7.7067
X8.2923Y-8.3219
X8.2972Y-8.4154
X8.2972Y-8.4449
X8.3266Y-7.8888
X8.3366Y-7.564
X8.3366Y-8.4715
X8.3377Y-7.7461
X8.3386Y-8.2116
X8.3415Y-7.5984
X8.3426Y-8.2972
X8.3465Y-7.9724
X8.4498Y-7.2766
X8.4498Y-7.3266
X8.4547Y-8.4154
X8.4695Y-7.5394
X8.4695Y-8.4941
X8.4843Y-8.4154
X8.4941Y-7.8105
X8.5138Y-8.4154
X8.5285Y-7.377
X8.5285Y-8.1988
X8.5531Y-7.687
X8.5531Y-7.7165
X8.5531Y-7.7461
X8.5766Y-8.0819
X8.5778Y-8.2726
X8.5778Y-8.3022
X8.5778Y-8.3711
X8.6024Y-7.8593
X8.6024Y-7.8948
X8.6266Y-8.0512
X8.6266Y-8.0852
X8.6516Y-7.8986
X8.6762Y-8.0167
X8.7016Y-7.8494
X8.7254Y-8.0364
X8.75Y-7.7559
X8.75Y-8.061
X8.7795Y-7.4262
X8.8583Y-7.9478
X8.8583Y-7.9765
X8.8592Y-8.0077
X8.8878Y-8.499
X8.9321Y-8.0413
X8.9518Y-8.499
X8.9616Y-8.0413
X8.9911Y-8.0413
X9.001Y-7.2933
X9.0207Y-8.0413
X9.0846Y-7.815
X9.1437Y-7.815
X9.2254Y-7.874
X9.2618Y-7.874
X9.2852Y-7.8986
X9.3254Y-7.8494
X9.3254Y-7.9232
X9.4004Y-7.6969
X9.4254Y-7.6722
X9.4504Y-7.623
X9.4754Y-7.6476
X9.562Y-7.7904
X9.562Y-7.8199
X9.562Y-8.002
X9.562Y-8.0315
X9.5915Y-7.7904
X9.5915Y-7.8199
X9.5915Y-8.002
X9.5915Y-8.0315
X9.6112Y-8.2185
X9.6112Y-8.2923
X9.6457Y-8.2677
X9.6654Y-8.2431
X9.6801Y-7.7215
X9.6949Y-7.7461
X9.8671Y-7.2392
X9.8671Y-7.4311
X9.872Y-8.499
X9.8967Y-7.2392
X9.8967Y-7.4311
X9.936Y-8.499
X10.0689Y-7.815
X10.128Y-7.815
X10.2096Y-7.874
X10.2461Y-7.874
X10.2695Y-7.8986
X10.3096Y-7.8494
X10.3096Y-7.9232
X10.3846Y-7.7461
X10.3988Y-7.7212
X10.4346Y-7.7215
X10.4596Y-7.7461
X10.5758Y-7.623
X10.5955Y-8.2185
X10.5955Y-8.2923
X10.6004Y-7.6476
X10.6594Y-8.2431
X10.6791Y-8.2677
X10.8563Y-8.499
X10.9203Y-8.499
X11.0531Y-7.815
X11.1122Y-7.815
X11.1939Y-7.874
X11.2303Y-7.874
X11.2537Y-7.8986
X11.2939Y-7.8494
X11.2939Y-7.9232
X11.3189Y-8.0413
X11.3689Y-8.0413
X11.4189Y-8.0413
X11.4689Y-8.0413
X11.56Y-7.6722
X11.5846Y-7.6969
X11.5994Y-7.7215
X11.6142Y-7.7461
X11.7874Y-7.7362
X11.7874Y-7.7953
X11.8406Y-8.499
X11.9045Y-8.499
X12.0374Y-7.815
X12.0965Y-7.815
X12.1781Y-7.874
X12.2146Y-7.874
X12.238Y-7.8986
X12.2781Y-7.8494
X12.2781Y-7.9232
X12.3031Y-8.0413
X12.3531Y-8.0413
X12.4031Y-8.0413
X12.4531Y-8.0413
X12.5689Y-7.6722
X12.6181Y-7.7215
X12.6378Y-7.6969
X12.6378Y-7.7461
X12.8248Y-8.499
X12.8888Y-8.499
X13.0217Y-7.815
X13.0807Y-7.815
X13.1624Y-7.874
X13.1988Y-7.874
X13.2222Y-7.8986
X13.2624Y-7.8494
X13.2624Y-7.9232
X13.2874Y-7.6969
X13.3124Y-7.6722
X13.3374Y-7.6969
X13.3624Y-7.6722
X13.3874Y-7.623
X13.4124Y-7.6476
X13.5482Y-8.2185
X13.5482Y-8.2923
X13.5827Y-8.2677
X13.6024Y-8.2431
X13.6171Y-7.623
X13.6319Y-7.6476
X13.8091Y-8.499
X13.873Y-8.499
X14.0059Y-7.815
X14.065Y-7.815
X14.1467Y-7.874
X14.1831Y-7.874
X14.2065Y-7.8986
X14.2467Y-7.8494
X14.2467Y-7.9232
X14.2717Y-7.7461
X14.2967Y-7.7215
X14.3217Y-7.6476
X14.3467Y-7.623
X14.3717Y-7.7215
X14.3967Y-7.7461
X14.5128Y-7.4065
X14.5128Y-7.5984
X14.5325Y-8.2185
X14.5325Y-8.2923
X14.5965Y-8.2431
X14.6161Y-8.2677
X14.7146Y-7.874
X14.7441Y-7.8248
X14.7441Y-7.874
X14.7758Y-8.5039
X14.8008Y-8.5236
X14.8258Y-7.562
X14.8258Y-8.5039
X14.8508Y-8.3169
X14.8524Y-7.874
X14.8671Y-8.3711
X14.8758Y-8.3317
X14.9016Y-7.7756
X14.9016Y-7.874
X14.9508Y-8.0118
X15.0008Y-8.0118
X15.0344Y-8.4793
X15.0508Y-8.0118
X15.0552Y-8.4586
X15.0754Y-8.4383
X15.0886Y-8.0118
X15.0957Y-8.4181
X15.118Y-8.3971
X15.118Y-8.3971
X15.1427Y-8.5285
X15.1673Y-7.4705
X15.1821Y-8.0463
X15.187Y-7.5886
X15.187Y-8.5039
X15.2067Y-8.0217
X15.2165Y-7.372
X15.2313Y-7.997
X15.251Y-8.5039
X15.2559Y-7.9724
X15.2805Y-7.9478
X15.3839Y-7.815
X15.4429Y-7.815
X15.5246Y-7.874
X15.561Y-7.874
X15.5844Y-7.8986
X15.6246Y-7.8494
X15.6246Y-7.9232
X15.6496Y-8.0463
X15.6996Y-8.0463
X15.7496Y-8.0463
X15.7996Y-8.0463
X15.8907Y-7.6722
X15.9154Y-7.6969
X15.9301Y-7.7215
X15.9449Y-7.7461
X16.1713Y-8.5039
X16.2352Y-8.5039
X16.3681Y-7.815
X16.4272Y-7.815
X16.5089Y-7.874
X16.5453Y-7.874
X16.5687Y-7.8986
X16.6089Y-7.8494
X16.6089Y-7.9232
X16.6339Y-8.0413
X16.6839Y-8.0413
X16.7339Y-8.0413
X16.7839Y-8.0413
X16.8996Y-7.6722
X16.9488Y-7.7215
X16.9685Y-7.6969
X16.9685Y-7.7461
X17.1555Y-8.5039
X17.2195Y-8.5039
X17.3524Y-7.815
X17.4114Y-7.815
X17.4931Y-7.874
X17.5295Y-7.874
X17.553Y-7.8986
X17.5931Y-7.8494
X17.5931Y-7.9232
X17.6181Y-7.6969
X17.6431Y-7.6722
X17.6681Y-7.6969
X17.6931Y-7.6722
X17.7181Y-7.623
X17.7431Y-7.6476
X17.8789Y-8.2185
X17.8789Y-8.2923
X17.9134Y-8.2677
X17.9331Y-8.2431
X17.9478Y-7.623
X17.9626Y-7.6476
X18.1398Y-8.5039
X18.2037Y-8.5039
X18.3366Y-7.815
X18.3957Y-7.815
X18.4774Y-7.874
X18.5138Y-7.874
X18.5372Y-7.8986
X18.5774Y-7.8494
X18.5774Y-7.9232
X18.6024Y-7.7461
X18.6274Y-7.7215
X18.6524Y-7.6476
X18.6774Y-7.623
X18.7024Y-7.7215
X18.7274Y-7.7461
X18.8435Y-7.4065
X18.8435Y-7.5984
X18.8632Y-8.2185
X18.8632Y-8.2923
X18.9272Y-8.2431
X18.9469Y-8.2677
X19.124Y-8.5039
X19.188Y-8.5039
X19.3209Y-7.815
X19.3799Y-7.815
X19.4616Y-7.874
X19.5215Y-7.8986
X19.5616Y-7.8494
X19.5616Y-7.9232
X19.5866Y-8.0413
X19.6366Y-8.0413
X19.6866Y-8.0413
X19.7366Y-8.0413
X19.8278Y-7.6722
X19.8524Y-7.6969
X19.8671Y-7.7215
X19.8819Y-7.7461
X20.1575Y-7.9921
X20.1575Y-8.0315
X20.1575Y-8.0709
T2
X4.4555Y-7.2394
X4.4555Y-7.8394
X4.5555Y-7.2394
X4.5555Y-7.8394
X4.6555Y-7.2394
X4.6555Y-7.8394
X4.7555Y-7.2394
X4.7555Y-7.8394
X4.8555Y-7.2394
X4.8555Y-7.8394
X4.9555Y-7.2394
X4.9555Y-7.8394
X5.0555Y-7.2394
X5.0555Y-7.8394
X5.1555Y-7.2394
X5.1555Y-7.8394
X5.2555Y-7.2394
X5.2555Y-7.8394
X5.3555Y-7.2394
X5.3555Y-7.8394
X5.4555Y-7.2394
X5.4555Y-7.8394
X5.5555Y-7.2394
X5.5555Y-7.8394
X5.6555Y-7.2394
X5.6555Y-7.8394
X5.7555Y-7.2394
X5.7555Y-7.8394
X5.8555Y-7.2394
X5.8555Y-7.8394
X5.9555Y-7.2394
X5.9555Y-7.8394
X6.0555Y-7.2394
X6.0555Y-7.8394
X6.1555Y-7.2394
X6.1555Y-7.8394
X6.2555Y-7.2394
X6.2555Y-7.8394
X6.3555Y-7.2394
X6.3555Y-7.8394
X6.4555Y-7.2394
X6.4555Y-7.8394
X6.5555Y-7.2394
X6.5555Y-7.8394
X6.6555Y-7.2394
X6.6555Y-7.8394
X6.7555Y-7.2394
X6.7555Y-7.8394
X6.8555Y-7.2394
X6.8555Y-7.8394
X6.9555Y-7.2394
X6.9555Y-7.8394
X7.0555Y-7.2394
X7.0555Y-7.8394
X7.1555Y-7.2394
X7.1555Y-7.8394
X7.2555Y-7.2394
X7.2555Y-7.8394
X7.3555Y-7.2394
X7.3555Y-7.8394
T3
X7.7756Y-7.2244
X7.7756Y-7.7953
X7.874Y-7.7953
X7.9724Y-7.2244
X7.9724Y-7.7953
X9.1535Y-7.2244
X9.252Y-7.2244
X9.3504Y-7.2244
X10.1378Y-7.2244
X10.2362Y-7.2244
X10.3346Y-7.2244
X11.122Y-7.2244
X11.2205Y-7.2244
X11.3189Y-7.2244
X12.1063Y-7.2244
X12.2047Y-7.2244
X12.3031Y-7.2244
X13.0906Y-7.2244
X13.189Y-7.2244
X13.2874Y-7.2244
X14.0748Y-7.2244
X14.1732Y-7.2244
X14.2717Y-7.2244
X15.4528Y-7.2244
X15.5512Y-7.2244
X15.6496Y-7.2244
X16.437Y-7.2244
X16.5354Y-7.2244
X16.6339Y-7.2244
X17.4213Y-7.2244
X17.5197Y-7.2244
X17.6181Y-7.2244
X18.4055Y-7.2244
X18.5039Y-7.2244
X18.6024Y-7.2244
X19.3898Y-7.2244
X19.4882Y-7.2244
X19.5866Y-7.2244
T4
X3.8386Y-7.4016
X3.8386Y-7.5984
X3.8386Y-8.1693
X3.8386Y-8.3661
X3.937Y-7.378
X3.937Y-7.622
X3.937Y-8.1457
X3.937Y-8.3898
X4.0354Y-7.4016
X4.0354Y-7.5984
X4.0354Y-8.1693
X4.0354Y-8.3661
X7.7756Y-8.1693
X7.7756Y-8.3661
X7.874Y-8.1457
X7.874Y-8.3898
X7.9724Y-8.1693
X7.9724Y-8.3661
X9.1535Y-8.1693
X9.1535Y-8.3661
X9.252Y-8.1457
X9.252Y-8.3898
X9.3504Y-8.1693
X9.3504Y-8.3661
X10.1378Y-8.1693
X10.1378Y-8.3661
X10.2362Y-8.1457
X10.2362Y-8.3898
X10.3346Y-8.1693
X10.3346Y-8.3661
X11.122Y-8.1693
X11.122Y-8.3661
X11.2205Y-8.1457
X11.2205Y-8.3898
X11.3189Y-8.1693
X11.3189Y-8.3661
X12.1063Y-8.1693
X12.1063Y-8.3661
X12.2047Y-8.1457
X12.2047Y-8.3898
X12.3031Y-8.1693
X12.3031Y-8.3661
X13.0906Y-8.1693
X13.0906Y-8.3661
X13.189Y-8.1457
X13.189Y-8.3898
X13.2874Y-8.1693
X13.2874Y-8.3661
X14.0748Y-8.1693
X14.0748Y-8.3661
X14.1732Y-8.1457
X14.1732Y-8.3898
X14.2717Y-8.1693
X14.2717Y-8.3661
X15.4528Y-8.1693
X15.4528Y-8.3661
X15.5512Y-8.1457
X15.5512Y-8.3898
X15.6496Y-8.1693
X15.6496Y-8.3661
X16.437Y-8.1693
X16.437Y-8.3661
X16.5354Y-8.1457
X16.5354Y-8.3898
X16.6339Y-8.1693
X16.6339Y-8.3661
X17.4213Y-8.1693
X17.4213Y-8.3661
X17.5197Y-8.1457
X17.5197Y-8.3898
X17.6181Y-8.1693
X17.6181Y-8.3661
X18.4055Y-8.1693
X18.4055Y-8.3661
X18.5039Y-8.1457
X18.5039Y-8.3898
X18.6024Y-8.1693
X18.6024Y-8.3661
X19.3898Y-8.1693
X19.3898Y-8.3661
X19.4882Y-8.1457
X19.4882Y-8.3898
X19.5866Y-8.1693
X19.5866Y-8.3661
T6
X3.5039Y-7.874
X3.6598Y-7.874
X3.8157Y-7.874
X3.9717Y-7.874
X4.1276Y-7.874
X4.2835Y-7.874
T7
X3.5827Y-7.3228
X3.5827Y-8.4252
X20.0787Y-7.874
T8
X9.0433Y-7.5
X9.4606Y-7.5
X10.0276Y-7.5
X10.4449Y-7.5
X11.0118Y-7.5
X11.4291Y-7.5
X11.9961Y-7.5
X12.4134Y-7.5
X12.9803Y-7.5
X13.3976Y-7.5
X13.9646Y-7.5
X14.3819Y-7.5
X15.3425Y-7.5
X15.7598Y-7.5
X16.3268Y-7.5
X16.7441Y-7.5
X17.311Y-7.5
X17.7283Y-7.5
X18.2953Y-7.5
X18.7126Y-7.5
X19.2795Y-7.5
X19.6969Y-7.5
T9
X3.5236Y-7.4606
X3.5236Y-8.2874
X8.6614Y-7.3465
X8.6614Y-8.4016
X14.9606Y-7.3465
X14.9606Y-8.4016
X20.0984Y-7.4606
X20.0984Y-8.2874
T5
G00X7.6437Y-7.4744
M15
G01X7.6437Y-7.5256
M16
G05
G00X8.1043Y-7.4744
M15
G01X8.1043Y-7.5256
M16
G05
T0
M30
